<svg width="563" height="406" viewBox="0 0 563 406" fill="none" xmlns="http://www.w3.org/2000/svg">
<path fill-rule="evenodd" clip-rule="evenodd" d="M170.713 0.775879C185.589 0.775879 202.47 1.61163 212.499 3.11592C221.692 4.6202 234.896 7.29444 241.749 9.13301C248.602 10.9716 262.14 16.3202 271.835 21.1673C285.874 28.0201 291.724 32.1987 301.252 41.5587C309.107 49.2473 315.124 57.103 318.634 64.123C321.643 70.1401 325.153 79.8344 326.323 85.8515C327.66 91.8686 328.663 106.911 328.663 142.68L312.283 147.861C303.424 150.703 290.053 155.717 282.699 159.227C275.345 162.57 264.48 168.754 258.63 172.766C252.78 176.944 243.922 185.134 238.74 191.151C233.726 197.168 227.542 203.52 225.202 205.358C222.862 207.197 214.839 210.54 207.485 213.047C200.13 215.554 181.745 220.234 166.535 223.744C151.325 227.087 134.443 231.767 128.928 233.94C123.412 236.113 115.723 240.124 111.712 242.966C106.865 246.476 103.355 250.988 100.179 257.507C97.0034 264.36 95.499 270.878 94.8305 279.737C94.1619 290.768 94.6635 293.443 98.5077 301.8C101.683 308.485 105.193 312.998 110.04 316.508C114.052 319.35 120.905 322.86 125.585 324.364C130.599 325.868 139.458 327.038 148.149 326.871C156.005 326.871 167.203 325.534 173.22 324.03C179.238 322.525 188.263 319.182 193.11 316.842C198.125 314.335 205.98 308.82 210.326 304.307C214.839 299.961 220.522 291.771 223.196 285.921C225.87 280.238 230.55 266.198 233.225 254.665C236.066 243.133 240.245 229.928 242.417 225.416C244.757 220.736 249.27 213.716 252.78 209.537C256.123 205.358 263.477 198.338 269.16 193.826C274.676 189.313 285.373 182.794 292.727 179.284C300.082 175.774 313.286 171.094 321.977 168.754C330.669 166.414 355.907 161.4 377.97 157.556C400.033 153.879 423.767 149.031 430.62 146.859C437.473 144.686 446.833 140.34 451.513 137.331C457.53 133.32 460.706 129.81 462.879 124.294C465.553 117.943 465.72 115.603 464.216 109.586C463.213 105.741 460.538 100.56 458.533 97.8858C456.36 95.3786 451.179 91.7015 447.167 89.6958C443.156 87.8572 433.461 84.8486 425.606 83.3444C415.243 81.1715 406.551 80.6701 393.849 81.1715C379.641 81.8401 374.126 82.843 365.434 86.5201C359.417 89.0272 353.734 91.5343 352.899 91.8686C352.063 92.37 350.559 89.0272 349.723 84.6815C349.054 80.3358 346.882 72.4801 345.043 67.4658C343.372 62.4515 339.694 54.4287 337.02 49.9158C334.346 45.2358 327.66 36.5445 322.144 30.193C316.462 24.0088 311.949 18.4931 311.949 17.6573C311.949 16.9888 315.459 14.8159 319.804 12.8102C324.317 10.6373 332.674 7.79591 338.692 6.45877C344.709 5.12163 361.256 3.1159 375.463 1.9459C395.353 0.441614 406.886 0.441614 426.441 1.9459C440.147 2.94875 457.864 5.45591 465.72 7.29448C473.576 9.13305 484.106 12.3087 489.12 14.1473C494.134 15.9859 503.661 20.3316 510.013 23.6744C517.2 27.3516 526.058 34.0373 532.577 40.723C539.43 47.5758 545.447 55.5987 548.79 62.4515C551.631 68.4687 555.141 77.8287 556.646 83.3444C557.983 88.8601 559.988 99.7243 560.991 107.58C562.161 116.773 562.328 143.516 561.827 182.794C561.158 216.39 560.155 252.827 559.32 263.858C558.317 274.89 556.144 290.267 554.305 298.123C552.3 305.978 547.954 318.347 544.277 325.701C540.767 333.055 533.747 343.92 528.9 349.77C524.053 355.787 515.528 364.311 510.013 368.657C504.497 373.002 494.636 379.187 488.284 382.362C481.933 385.538 469.063 390.385 459.87 393.227C450.677 396.068 434.13 399.912 423.099 401.918C408.223 404.425 395.52 405.428 374.627 405.595C358.414 405.595 341.533 404.759 335.349 403.59C329.332 402.587 320.64 400.414 316.127 398.91C311.447 397.405 303.592 394.898 289.384 389.717L301.084 378.685C307.77 372.334 317.632 360.3 323.983 350.772C330 341.58 336.352 330.381 338.023 326.035C340.363 320.185 341.867 318.347 343.706 319.182C345.043 319.684 350.392 321.69 355.406 323.695C362.091 326.035 368.777 327.038 379.641 327.038C389.169 327.038 398.361 326.035 404.713 324.197C410.229 322.525 418.92 319.015 423.934 316.341C428.949 313.667 437.139 307.65 441.986 302.803C446.833 297.956 453.184 289.431 455.858 283.915C458.533 278.4 461.876 268.538 463.213 262.187C464.717 255.167 465.72 241.294 465.72 227.421C465.72 208.2 465.386 204.523 463.213 204.523C461.876 204.523 454.856 206.863 447.668 209.537C440.648 212.378 419.421 218.396 400.534 223.076C381.647 227.756 362.426 233.104 357.913 235.11C353.233 236.948 346.882 240.291 343.706 242.464C340.53 244.47 336.184 248.648 334.011 251.657C331.504 255.334 328.663 265.53 325.153 282.244C322.312 295.95 318.3 311.828 316.294 317.344C314.122 322.86 309.609 331.885 306.099 337.401C302.589 342.917 295.903 351.441 291.223 356.455C286.543 361.303 278.186 368.657 272.67 372.668C267.155 376.512 256.959 382.362 250.106 385.705C243.253 388.881 231.887 393.06 225.035 394.898C218.182 396.904 205.813 399.578 197.456 401.082C189.099 402.587 168.206 404.091 150.656 404.592C130.599 405.261 114.052 404.927 105.528 403.59C98.1734 402.587 86.4734 399.912 79.6205 397.572C72.7677 395.232 61.0677 390.051 53.7134 386.207C45.8577 382.028 36.3306 375.175 30.3135 369.158C23.1263 362.305 18.112 355.285 13.9334 346.594C10.4234 339.741 6.07788 328.041 4.07217 320.687C1.23075 309.655 0.562012 302.635 0.562012 281.408C0.562012 258.844 1.06348 253.83 4.57347 242.13C6.74633 234.776 11.2592 224.413 14.4349 218.897C17.6106 213.548 24.4635 205.358 29.4778 200.846C34.492 196.166 43.5177 189.48 49.5349 185.97C55.552 182.46 66.082 177.111 72.9348 174.27C79.7877 171.596 92.6577 167.417 101.349 165.244C110.04 162.904 129.262 159.561 143.97 157.723C158.679 155.884 176.73 152.876 184.085 151.037C191.439 149.366 201.635 146.357 206.649 144.351C211.663 142.346 218.349 139.003 221.19 136.663C224.199 134.49 228.21 130.144 230.049 127.136C231.887 124.294 233.392 119.28 233.392 116.271C233.392 113.43 232.389 108.416 231.219 105.407C229.882 102.566 226.037 97.7186 222.36 94.71C218.85 91.7015 210.995 87.6901 204.977 85.6844C197.289 83.1773 188.263 81.84 174.056 81.3386C158.512 80.6701 151.492 81.0044 143.135 83.1773C137.118 84.6815 129.095 87.8572 125.083 90.0301C121.239 92.3701 115.556 97.5515 107.199 109.251H11.0921V105.073C11.0921 102.733 12.9306 95.0444 15.2706 87.8572C17.4435 80.8372 22.1234 70.3073 25.6334 64.4573C29.1434 58.7744 35.3278 50.2501 39.5063 45.403C43.6849 40.723 52.3763 33.2016 58.7277 28.6887C65.0791 24.1759 75.7763 18.3259 82.1277 15.6516C88.4791 12.9773 100.179 9.30015 108.035 7.46158C115.89 5.62301 127.59 3.28302 133.942 2.4473C140.293 1.77873 156.84 0.943021 170.713 0.775879Z" fill="#003840"/>
</svg>
