<svg width="973" height="934" viewBox="0 0 973 934" fill="none" xmlns="http://www.w3.org/2000/svg">
<g clip-path="url(#clip0_90_595)">
<mask id="mask0_90_595" style="mask-type:luminance" maskUnits="userSpaceOnUse" x="0" y="-276" width="1482" height="1333">
<path d="M0.57004 268.851L395.579 1056.54L1481.56 511.938L1086.55 -275.747L0.57004 268.851Z" fill="white"/>
</mask>
<g mask="url(#mask0_90_595)">
<mask id="mask1_90_595" style="mask-type:luminance" maskUnits="userSpaceOnUse" x="0" y="-276" width="1482" height="1333">
<path d="M0.57004 268.851L395.579 1056.54L1481.56 511.938L1086.55 -275.747L0.57004 268.851Z" fill="white"/>
</mask>
<g mask="url(#mask1_90_595)">
<g opacity="0.15">
<path d="M867.59 -25.7282L778.45 -35.8001" stroke="white" stroke-width="1.34987"/>
<path d="M866.323 -15.8709L777.394 -27.2905" stroke="white" stroke-width="1.34987"/>
<path d="M865.055 -6.02059L776.337 -18.7872" stroke="white" stroke-width="1.34987"/>
<path d="M863.579 3.76784L775.073 -10.3465" stroke="white" stroke-width="1.34987"/>
<path d="M861.741 13.5489L773.518 -2.12499" stroke="white" stroke-width="1.34987"/>
<path d="M860.046 23.2591L771.893 6.31015" stroke="white" stroke-width="1.34987"/>
<path d="M858.209 33.045L770.409 14.6781" stroke="white" stroke-width="1.34987"/>
<path d="M855.949 42.6859L768.572 23.0418" stroke="white" stroke-width="1.34987"/>
<path d="M853.689 52.3308L766.525 31.339" stroke="white" stroke-width="1.34987"/>
<path d="M851.287 62.0425L764.475 39.634" stroke="white" stroke-width="1.34987"/>
<path d="M848.672 72.3899L762.213 48.563" stroke="white" stroke-width="1.34987"/>
<path d="M845.774 81.8239L759.741 56.7209" stroke="white" stroke-width="1.34987"/>
<path d="M842.948 91.3984L757.268 64.8782" stroke="white" stroke-width="1.34987"/>
<path d="M840.045 100.825L754.788 73.028" stroke="white" stroke-width="1.34987"/>
<path d="M836.792 110.26L752.103 81.1138" stroke="white" stroke-width="1.34987"/>
<path d="M833.33 119.624L748.993 89.06" stroke="white" stroke-width="1.34987"/>
<path d="M830.002 128.907L746.09 97.0682" stroke="white" stroke-width="1.34987"/>
<path d="M826.535 138.267L743.189 105.081" stroke="white" stroke-width="1.34987"/>
<path d="M822.574 147.351L739.866 112.957" stroke="white" stroke-width="1.34987"/>
<path d="M818.613 156.427L736.469 120.688" stroke="white" stroke-width="1.34987"/>
<path d="M814.364 166.355L732.716 129.125" stroke="white" stroke-width="1.34987"/>
<path d="M810.33 175.292L729.32 136.856" stroke="white" stroke-width="1.34987"/>
<path d="M805.802 184.299L725.499 144.445" stroke="white" stroke-width="1.34987"/>
<path d="M801.196 193.163L721.458 151.962" stroke="white" stroke-width="1.34987"/>
<path d="M796.736 201.959L717.636 159.551" stroke="white" stroke-width="1.34987"/>
<path d="M791.929 210.758L713.75 167.003" stroke="white" stroke-width="1.34987"/>
<path d="M786.829 219.337L709.286 174.377" stroke="white" stroke-width="1.34987"/>
<path d="M781.731 227.923L704.896 181.544" stroke="white" stroke-width="1.34987"/>
<path d="M776.633 236.508L700.577 188.852" stroke="white" stroke-width="1.34987"/>
<path d="M771.249 244.878L696.186 196.015" stroke="white" stroke-width="1.34987"/>
<path d="M765.231 253.746L690.947 203.606" stroke="white" stroke-width="1.34987"/>
<path d="M759.423 261.974L686.059 210.486" stroke="white" stroke-width="1.34987"/>
<path d="M753.829 270.277L681.386 217.441" stroke="white" stroke-width="1.34987"/>
<path d="M747.881 278.227L676.287 224.256" stroke="white" stroke-width="1.34987"/>
<path d="M741.575 286.172L671.044 230.783" stroke="white" stroke-width="1.34987"/>
<path d="M735.341 293.906L665.731 237.521" stroke="white" stroke-width="1.34987"/>
<path d="M729.181 301.784L660.491 244.053" stroke="white" stroke-width="1.34987"/>
<path d="M722.523 309.377L654.966 250.368" stroke="white" stroke-width="1.34987"/>
<path d="M715.722 316.686L649.228 256.612" stroke="white" stroke-width="1.34987"/>
<path d="M708.991 324.138L643.63 262.788" stroke="white" stroke-width="1.34987"/>
<path d="M701.622 332.091L637.396 269.462" stroke="white" stroke-width="1.34987"/>
<path d="M694.539 339.184L631.517 275.419" stroke="white" stroke-width="1.34987"/>
<path d="M687.314 346.003L625.354 281.175" stroke="white" stroke-width="1.34987"/>
<path d="M679.945 352.885L619.189 286.92" stroke="white" stroke-width="1.34987"/>
<path d="M672.576 359.771L613.096 292.813" stroke="white" stroke-width="1.34987"/>
<path d="M665.067 366.374L606.792 298.278" stroke="white" stroke-width="1.34987"/>
<path d="M657.2 372.626L600.199 303.537" stroke="white" stroke-width="1.34987"/>
<path d="M649.406 379.018L593.609 308.793" stroke="white" stroke-width="1.34987"/>
<path d="M641.539 385.263L587.091 314.185" stroke="white" stroke-width="1.34987"/>
<path d="M633.461 391.437L580.501 319.083" stroke="white" stroke-width="1.34987"/>
<path d="M624.036 397.763L573.343 323.916" stroke="white" stroke-width="1.34987"/>
<path d="M615.317 403.729L566.75 328.46" stroke="white" stroke-width="1.34987"/>
<path d="M606.603 409.343L560.02 332.726" stroke="white" stroke-width="1.34987"/>
<path d="M597.603 414.387L552.933 336.633" stroke="white" stroke-width="1.34987"/>
<path d="M588.6 419.432L545.915 340.683" stroke="white" stroke-width="1.34987"/>
<path d="M579.601 424.477L538.829 344.591" stroke="white" stroke-width="1.34987"/>
<path d="M570.244 428.82L531.387 348.152" stroke="white" stroke-width="1.34987"/>
<path d="M561.032 433.086L523.876 351.564" stroke="white" stroke-width="1.34987"/>
<path d="M551.817 437.348L516.362 354.973" stroke="white" stroke-width="1.34987"/>
<path d="M542.461 441.332L508.779 358.244" stroke="white" stroke-width="1.34987"/>
<path d="M532.112 445.099L500.272 361.444" stroke="white" stroke-width="1.34987"/>
<path d="M522.681 448.59L492.471 364.294" stroke="white" stroke-width="1.34987"/>
<path d="M513.114 452.15L484.676 367.142" stroke="white" stroke-width="1.34987"/>
<path d="M503.614 455.144L476.666 369.568" stroke="white" stroke-width="1.34987"/>
<path d="M493.899 458.057L468.652 371.981" stroke="white" stroke-width="1.34987"/>
<path d="M484.26 460.768L460.502 374.476" stroke="white" stroke-width="1.34987"/>
<path d="M474.621 463.478L452.422 376.76" stroke="white" stroke-width="1.34987"/>
<path d="M464.909 465.688L444.269 378.542" stroke="white" stroke-width="1.34987"/>
<path d="M455.052 467.97L435.972 380.397" stroke="white" stroke-width="1.34987"/>
<path d="M445.342 470.179L427.679 382.25" stroke="white" stroke-width="1.34987"/>
<path d="M434.777 472.116L418.746 383.9" stroke="white" stroke-width="1.34987"/>
<path d="M424.924 473.688L410.382 385.257" stroke="white" stroke-width="1.34987"/>
<path d="M414.93 475.332L402.018 386.615" stroke="white" stroke-width="1.34987"/>
<path d="M405.072 476.907L393.65 387.976" stroke="white" stroke-width="1.34987"/>
<path d="M395.287 477.908L385.212 388.833" stroke="white" stroke-width="1.34987"/>
<path d="M385.287 478.841L376.772 389.693" stroke="white" stroke-width="1.34987"/>
<path d="M375.293 479.783L368.408 390.349" stroke="white" stroke-width="1.34987"/>
<path d="M365.364 480.504L359.896 391.067" stroke="white" stroke-width="1.34987"/>
<path d="M355.298 480.945L351.532 391.364" stroke="white" stroke-width="1.34987"/>
<path d="M345.372 481.315L343.025 391.733" stroke="white" stroke-width="1.34987"/>
<path d="M334.523 481.613L333.949 392.027" stroke="white" stroke-width="1.34987"/>
<path d="M324.526 481.493L325.583 391.976" stroke="white" stroke-width="1.34987"/>
<path d="M314.45 481.22L317.066 391.63" stroke="white" stroke-width="1.34987"/>
<path d="M304.384 480.954L308.772 391.361" stroke="white" stroke-width="1.34987"/>
<path d="M294.387 480.469L300.265 391.016" stroke="white" stroke-width="1.34987"/>
<path d="M284.387 479.632L291.896 390.247" stroke="white" stroke-width="1.34987"/>
<path d="M274.248 478.518L283.671 389.412" stroke="white" stroke-width="1.34987"/>
<path d="M264.178 477.538L275.445 388.573" stroke="white" stroke-width="1.34987"/>
<path d="M254.178 476.354L267.147 387.598" stroke="white" stroke-width="1.34987"/>
<path d="M244.177 474.45L258.919 386.046" stroke="white" stroke-width="1.34987"/>
<path d="M233.328 472.623L250.197 384.57" stroke="white" stroke-width="1.34987"/>
<path d="M223.327 470.724L242.04 383.165" stroke="white" stroke-width="1.34987"/>
<path d="M213.328 468.471L234.099 381.122" stroke="white" stroke-width="1.34987"/>
<path d="M203.327 465.866L226.155 379.08" stroke="white" stroke-width="1.34987"/>
<path d="M193.471 463.187L218.356 376.965" stroke="white" stroke-width="1.34987"/>
<path d="M183.543 460.368L210.555 374.852" stroke="white" stroke-width="1.34987"/>
<path d="M173.611 456.836L202.964 372.096" stroke="white" stroke-width="1.34987"/>
<path d="M163.891 453.375L195.372 369.341" stroke="white" stroke-width="1.34987"/>
<path d="M154.103 449.778L187.854 366.732" stroke="white" stroke-width="1.34987"/>
<path d="M144.453 445.397L180.686 363.412" stroke="white" stroke-width="1.34987"/>
<path d="M131.474 439.323L175.582 361.012" stroke="white" stroke-width="1.34987"/>
<path d="M114.662 430.561L175.582 361.011" stroke="white" stroke-width="1.34987"/>
<path d="M98.7 420.661L175.583 361.011" stroke="white" stroke-width="1.34987"/>
<path d="M82.9478 410.829L175.581 361.008" stroke="white" stroke-width="1.34987"/>
<path d="M66.9878 400.935L175.584 361.011" stroke="white" stroke-width="1.34987"/>
<path d="M62.8604 387.406L175.581 361.013" stroke="white" stroke-width="1.34987"/>
<path d="M70.646 370.383L175.582 361.012" stroke="white" stroke-width="1.34987"/>
<path d="M78.5731 353.29L175.582 361.012" stroke="white" stroke-width="1.34987"/>
<path d="M87.211 336.55L175.584 361.011" stroke="white" stroke-width="1.34987"/>
<path d="M95.7076 319.881L175.586 361.01" stroke="white" stroke-width="1.34987"/>
<path d="M103.636 307.396L178.345 356.967" stroke="white" stroke-width="1.34987"/>
<path d="M109.583 298.741L182.663 350.724" stroke="white" stroke-width="1.34987"/>
<path d="M115.673 290.364L187.266 344.334" stroke="white" stroke-width="1.34987"/>
<path d="M121.976 282.418L192.294 338.091" stroke="white" stroke-width="1.34987"/>
<path d="M128.283 274.475L197.113 331.781" stroke="white" stroke-width="1.34987"/>
<path d="M134.942 266.88L202.427 325.748" stroke="white" stroke-width="1.34987"/>
<path d="M141.599 259.288L207.879 319.645" stroke="white" stroke-width="1.34987"/>
<path d="M148.329 251.836L213.335 313.542" stroke="white" stroke-width="1.34987"/>
<path d="M155.343 244.943L219.144 307.785" stroke="white" stroke-width="1.34987"/>
<path d="M162.426 237.845L224.951 302.036" stroke="white" stroke-width="1.34987"/>
<path d="M170.077 230.468L231.399 295.794" stroke="white" stroke-width="1.34987"/>
<path d="M177.375 223.794L237.634 290.183" stroke="white" stroke-width="1.34987"/>
<path d="M184.675 217.124L243.871 284.579" stroke="white" stroke-width="1.34987"/>
<path d="M191.972 210.803L250.177 279.111" stroke="white" stroke-width="1.34987"/>
<path d="M199.553 204.695L256.552 273.783" stroke="white" stroke-width="1.34987"/>
<path d="M207.065 198.449L263.072 268.39" stroke="white" stroke-width="1.34987"/>
<path d="M214.718 192.482L269.732 263.274" stroke="white" stroke-width="1.34987"/>
<path d="M222.513 186.448L276.537 258.092" stroke="white" stroke-width="1.34987"/>
<path d="M230.236 180.622L283.197 252.977" stroke="white" stroke-width="1.34987"/>
<path d="M238.104 175.084L290.142 248.078" stroke="white" stroke-width="1.34987"/>
<path d="M246.606 169.044L297.725 242.678" stroke="white" stroke-width="1.34987"/>
<path d="M254.544 163.647L304.741 237.92" stroke="white" stroke-width="1.34987"/>
<path d="M262.695 158.321L311.828 233.304" stroke="white" stroke-width="1.34987"/>
<path d="M270.701 153.06L318.843 228.542" stroke="white" stroke-width="1.34987"/>
<path d="M278.92 147.877L326.14 223.998" stroke="white" stroke-width="1.34987"/>
<path d="M287.212 142.834L333.511 219.593" stroke="white" stroke-width="1.34987"/>
<path d="M295.366 137.86L340.743 215.26" stroke="white" stroke-width="1.34987"/>
<path d="M303.797 133.094L348.183 210.991" stroke="white" stroke-width="1.34987"/>
<path d="M312.231 128.335L355.482 206.799" stroke="white" stroke-width="1.34987"/>
<path d="M320.738 123.714L362.998 202.677" stroke="white" stroke-width="1.34987"/>
<path d="M330.017 118.878L371.142 198.41" stroke="white" stroke-width="1.34987"/>
<path d="M338.593 114.401L378.656 194.642" stroke="white" stroke-width="1.34987"/>
<path d="M347.313 110.205L386.312 190.803" stroke="white" stroke-width="1.34987"/>
<path d="M356.175 105.943L393.97 187.322" stroke="white" stroke-width="1.34987"/>
<path d="M364.964 101.89L401.553 183.695" stroke="white" stroke-width="1.34987"/>
<path d="M374.036 98.0491L409.136 180.424" stroke="white" stroke-width="1.34987"/>
<path d="M383.108 94.2124L416.791 177.3" stroke="white" stroke-width="1.34987"/>
<path d="M392.467 90.5819L424.521 174.308" stroke="white" stroke-width="1.34987"/>
<path d="M401.824 86.9514L432.106 171.39" stroke="white" stroke-width="1.34987"/>
<path d="M411.25 83.8236L439.83 168.761" stroke="white" stroke-width="1.34987"/>
<path d="M421.461 80.4729L448.198 165.979" stroke="white" stroke-width="1.34987"/>
<path d="M431.029 77.6229L456.064 163.628" stroke="white" stroke-width="1.34987"/>
<path d="M440.457 74.8472L464.145 161.351" stroke="white" stroke-width="1.34987"/>
<path d="M450.098 72.4907L472.156 159.28" stroke="white" stroke-width="1.34987"/>
<path d="M459.526 70.0706L480.166 157.216" stroke="white" stroke-width="1.34987"/>
<path d="M469.102 67.9288L488.323 155.431" stroke="white" stroke-width="1.34987"/>
<path d="M478.671 65.7907L496.617 153.578" stroke="white" stroke-width="1.34987"/>
<path d="M488.241 64.0011L504.911 152.073" stroke="white" stroke-width="1.34987"/>
<path d="M497.952 62.1452L513.205 150.575" stroke="white" stroke-width="1.34987"/>
<path d="M507.526 60.7136L521.431 149.287" stroke="white" stroke-width="1.34987"/>
<path d="M517.877 59.0685L530.505 147.927" stroke="white" stroke-width="1.34987"/>
<path d="M527.522 57.7787L538.802 146.78" stroke="white" stroke-width="1.34987"/>
<path d="M537.233 56.631L547.31 145.707" stroke="white" stroke-width="1.34987"/>
<path d="M546.804 55.5539L555.674 144.703" stroke="white" stroke-width="1.34987"/>
<path d="M556.516 54.7606L564.041 144.053" stroke="white" stroke-width="1.34987"/>
<path d="M566.159 53.8197L572.548 143.325" stroke="white" stroke-width="1.34987"/>
<path d="M575.872 53.3795L580.984 142.816" stroke="white" stroke-width="1.34987"/>
<path d="M585.516 52.8034L589.424 142.313" stroke="white" stroke-width="1.34987"/>
<path d="M595.085 52.4289L598 142.082" stroke="white" stroke-width="1.34987"/>
<path d="M604.733 52.2056L606.37 141.789" stroke="white" stroke-width="1.34987"/>
<path d="M615.298 52.0523L615.73 141.708" stroke="white" stroke-width="1.34987"/>
<path d="M624.938 52.1737L624.094 141.761" stroke="white" stroke-width="1.34987"/>
<path d="M634.654 52.0915L632.605 141.752" stroke="white" stroke-width="1.34987"/>
<path d="M644.299 52.5704L641.115 142.091" stroke="white" stroke-width="1.34987"/>
<path d="M654.013 52.8377L649.624 142.431" stroke="white" stroke-width="1.34987"/>
<path d="M663.731 53.4644L658.064 142.988" stroke="white" stroke-width="1.34987"/>
<path d="M673.303 54.156L666.503 143.54" stroke="white" stroke-width="1.34987"/>
<path d="M683.088 54.9249L674.799 144.169" stroke="white" stroke-width="1.34987"/>
<path d="M692.803 55.9009L683.237 145.076" stroke="white" stroke-width="1.34987"/>
<path d="M702.374 56.9489L691.674 145.984" stroke="white" stroke-width="1.34987"/>
<path d="M712.802 58.2805L700.612 147.175" stroke="white" stroke-width="1.34987"/>
<path d="M722.518 59.6146L708.98 148.3" stroke="white" stroke-width="1.34987"/>
<path d="M732.16 61.1575L717.275 149.632" stroke="white" stroke-width="1.34987"/>
<path d="M741.734 62.9119L725.573 150.962" stroke="white" stroke-width="1.34987"/>
<path d="M751.38 64.8171L733.729 152.729" stroke="white" stroke-width="1.34987"/>
<path d="M761.026 66.7133L741.957 154.272" stroke="white" stroke-width="1.34987"/>
<path d="M770.671 68.9676L750.042 156.246" stroke="white" stroke-width="1.34987"/>
<path d="M780.173 71.2894L758.126 158.216" stroke="white" stroke-width="1.34987"/>
<path d="M789.747 73.7579L766.068 160.261" stroke="white" stroke-width="1.34987"/>
<path d="M799.254 76.4365L774.085 162.445" stroke="white" stroke-width="1.34987"/>
<path d="M809.536 79.6115L782.524 165.127" stroke="white" stroke-width="1.34987"/>
<path d="M819.046 82.6503L790.33 167.602" stroke="white" stroke-width="1.34987"/>
<path d="M828.476 85.8929L798.06 170.28" stroke="white" stroke-width="1.34987"/>
<path d="M837.911 89.4925L805.721 173.173" stroke="white" stroke-width="1.34987"/>
<path d="M847.344 93.093L813.239 176.139" stroke="white" stroke-width="1.34987"/>
<path d="M856.636 97.1196L820.545 179.39" stroke="white" stroke-width="1.34987"/>
<path d="M865.788 101.218L827.922 182.425" stroke="white" stroke-width="1.34987"/>
<path d="M875.01 105.805L835.017 185.953" stroke="white" stroke-width="1.34987"/>
<path d="M884.233 110.401L842.183 189.631" stroke="white" stroke-width="1.34987"/>
<path d="M893.172 115.491L848.923 193.52" stroke="white" stroke-width="1.34987"/>
<path d="M902.823 120.936L856.304 197.623" stroke="white" stroke-width="1.34987"/>
<path d="M911.687 126.589L862.827 201.79" stroke="white" stroke-width="1.34987"/>
<path d="M920.413 132.316L869.21 206.032" stroke="white" stroke-width="1.34987"/>
<path d="M928.857 138.539L875.385 210.558" stroke="white" stroke-width="1.34987"/>
<path d="M937.371 144.911L881.557 215.09" stroke="white" stroke-width="1.34987"/>
<path d="M945.46 151.843L887.163 219.9" stroke="white" stroke-width="1.34987"/>
<path d="M953.549 158.775L892.768 224.71" stroke="white" stroke-width="1.34987"/>
<path d="M961.284 166.417L898.02 229.875" stroke="white" stroke-width="1.34987"/>
<path d="M968.883 174.134L903.134 235.114" stroke="white" stroke-width="1.34987"/>
<path d="M976.052 182.414L907.89 240.704" stroke="white" stroke-width="1.34987"/>
<path d="M983.65 191.548L912.79 246.582" stroke="white" stroke-width="1.34987"/>
<path d="M990.174 200.322L917.114 252.383" stroke="white" stroke-width="1.34987"/>
<path d="M996.351 209.455L921.089 258.188" stroke="white" stroke-width="1.34987"/>
<path d="M1002.17 218.947L924.782 264.14" stroke="white" stroke-width="1.34987"/>
<path d="M1007.43 228.364L928.405 270.651" stroke="white" stroke-width="1.34987"/>
<path d="M1012.19 237.855L931.815 277.452" stroke="white" stroke-width="1.34987"/>
<path d="M1016.88 247.202L935.224 284.249" stroke="white" stroke-width="1.34987"/>
<path d="M1020.93 257.05L937.997 291.194" stroke="white" stroke-width="1.34987"/>
<path d="M1024.84 266.963L940.768 298.133" stroke="white" stroke-width="1.34987"/>
<path d="M1028.39 276.881L943.326 305.357" stroke="white" stroke-width="1.34987"/>
<path d="M1031.8 287.934L945.741 313.011" stroke="white" stroke-width="1.34987"/>
<path d="M1034.79 298.137L947.81 320.309" stroke="white" stroke-width="1.34987"/>
<path d="M1037 308.553L949.301 327.536" stroke="white" stroke-width="1.34987"/>
<path d="M1039.21 318.963L950.871 334.902" stroke="white" stroke-width="1.34987"/>
<path d="M1040.78 329.525L952.156 342.415" stroke="white" stroke-width="1.34987"/>
<path d="M1042.13 340.014L953.08 349.928" stroke="white" stroke-width="1.34987"/>
<path d="M1043.28 350.429L953.797 357.366" stroke="white" stroke-width="1.34987"/>
<path d="M1043.78 360.987L954.16 365.161" stroke="white" stroke-width="1.34987"/>
<path d="M1044.29 371.552L954.592 372.75" stroke="white" stroke-width="1.34987"/>
<path d="M1044.01 381.966L954.384 380.469" stroke="white" stroke-width="1.34987"/>
<path d="M1043.74 393.094L954.316 388.834" stroke="white" stroke-width="1.34987"/>
<path d="M1043.04 403.371L953.62 396.63" stroke="white" stroke-width="1.34987"/>
<path d="M1042.2 413.723L952.915 404.43" stroke="white" stroke-width="1.34987"/>
<path d="M1040.93 423.932L952.071 412.299" stroke="white" stroke-width="1.34987"/>
<path d="M1039.38 433.93L950.872 420.171" stroke="white" stroke-width="1.34987"/>
<path d="M1037.9 444.064L949.673 428.035" stroke="white" stroke-width="1.34987"/>
<path d="M1035.92 453.92L947.977 435.978" stroke="white" stroke-width="1.34987"/>
<path d="M1033.74 463.705L946.289 443.92" stroke="white" stroke-width="1.34987"/>
<path d="M1031.47 473.346L944.447 451.929" stroke="white" stroke-width="1.34987"/>
<path d="M1029.07 483.056L942.4 459.868" stroke="white" stroke-width="1.34987"/>
<path d="M1026.1 493.412L939.994 468.522" stroke="white" stroke-width="1.34987"/>
<path d="M1023.34 502.77L937.59 476.461" stroke="white" stroke-width="1.34987"/>
<path d="M1020.44 512.199L935.187 484.401" stroke="white" stroke-width="1.34987"/>
<path d="M1017.26 521.421L932.429 492.347" stroke="white" stroke-width="1.34987"/>
<path d="M1014.01 530.497L929.669 500.29" stroke="white" stroke-width="1.34987"/>
<path d="M1010.61 539.644L926.771 508.301" stroke="white" stroke-width="1.34987"/>
<path d="M1007.14 548.652L923.655 516.244" stroke="white" stroke-width="1.34987"/>
<path d="M1003.68 557.657L920.542 524.187" stroke="white" stroke-width="1.34987"/>
<path d="M1000.07 566.381L917.216 532.06" stroke="white" stroke-width="1.34987"/>
<path d="M996.389 575.316L913.962 540.072" stroke="white" stroke-width="1.34987"/>
<path d="M992.214 584.677L910.142 548.724" stroke="white" stroke-width="1.34987"/>
<path d="M988.394 593.328L906.675 556.666" stroke="white" stroke-width="1.34987"/>
<path d="M984.429 602.054L903.064 564.327" stroke="white" stroke-width="1.34987"/>
<path d="M979.97 611.203L899.454 571.633" stroke="white" stroke-width="1.34987"/>
<path d="M975.584 620.139L895.989 578.867" stroke="white" stroke-width="1.34987"/>
<path d="M970.627 629.007L892.093 585.963" stroke="white" stroke-width="1.34987"/>
<path d="M965.811 637.804L888.057 593.127" stroke="white" stroke-width="1.34987"/>
<path d="M960.712 646.385L883.949 600.146" stroke="white" stroke-width="1.34987"/>
<path d="M955.403 654.898L879.632 607.099" stroke="white" stroke-width="1.34987"/>
<path d="M950.091 663.408L875.239 613.907" stroke="white" stroke-width="1.34987"/>
<path d="M944.001 672.142L870.212 621.222" stroke="white" stroke-width="1.34987"/>
<path d="M938.195 680.369L865.61 627.959" stroke="white" stroke-width="1.34987"/>
<path d="M932.321 688.459L860.727 634.488" stroke="white" stroke-width="1.34987"/>
<path d="M926.291 696.26L855.618 640.942" stroke="white" stroke-width="1.34987"/>
<path d="M920.138 704.142L850.528 647.404" stroke="white" stroke-width="1.34987"/>
<path d="M913.686 711.801L845.351 653.715" stroke="white" stroke-width="1.34987"/>
<path d="M906.957 719.252L839.897 659.817" stroke="white" stroke-width="1.34987"/>
<path d="M900.443 726.784L834.515 666.071" stroke="white" stroke-width="1.34987"/>
<path d="M893.57 733.946L828.918 671.886" stroke="white" stroke-width="1.34987"/>
<path d="M886.486 741.044L823.109 677.635" stroke="white" stroke-width="1.34987"/>
<path d="M878.834 748.78L816.875 683.951" stroke="white" stroke-width="1.34987"/>
<path d="M871.398 755.529L810.927 689.423" stroke="white" stroke-width="1.34987"/>
<path d="M863.952 762.272L804.969 694.887" stroke="white" stroke-width="1.34987"/>
<path d="M856.373 768.733L798.735 700.142" stroke="white" stroke-width="1.34987"/>
<path d="M848.575 775.121L792.426 705.251" stroke="white" stroke-width="1.34987"/>
<path d="M840.573 781.441L786.124 710.363" stroke="white" stroke-width="1.34987"/>
<path d="M832.562 787.404L779.602 715.048" stroke="white" stroke-width="1.34987"/>
<path d="M824.131 793.231L773.084 719.738" stroke="white" stroke-width="1.34987"/>
<path d="M815.909 799.123L766.492 724.282" stroke="white" stroke-width="1.34987"/>
<path d="M807.264 804.526L759.618 728.62" stroke="white" stroke-width="1.34987"/>
<path d="M797.911 810.279L752.249 733.022" stroke="white" stroke-width="1.34987"/>
<path d="M789.12 815.395L745.443 737.143" stroke="white" stroke-width="1.34987"/>
<path d="M780.12 820.091L738.356 740.702" stroke="white" stroke-width="1.34987"/>
<path d="M770.979 824.852L731.342 744.397" stroke="white" stroke-width="1.34987"/>
<path d="M761.835 829.26L724.182 747.81" stroke="white" stroke-width="1.34987"/>
<path d="M752.336 833.31L716.953 751.077" stroke="white" stroke-width="1.34987"/>
<path d="M742.838 837.366L709.794 754.137" stroke="white" stroke-width="1.34987"/>
<path d="M733.269 840.926L702.279 756.844" stroke="white" stroke-width="1.34987"/>
<path d="M723.486 844.41L694.907 759.473" stroke="white" stroke-width="1.34987"/>
<path d="M712.565 848.111L688.736 761.679" stroke="white" stroke-width="1.34987"/>
<path d="M693.568 852.323L688.739 761.68" stroke="white" stroke-width="1.34987"/>
<path d="M675.209 856.392L688.74 761.683" stroke="white" stroke-width="1.34987"/>
<path d="M656.987 860.033L688.739 761.681" stroke="white" stroke-width="1.34987"/>
<path d="M638.837 862.752L688.74 761.68" stroke="white" stroke-width="1.34987"/>
<path d="M620.686 865.472L688.737 761.68" stroke="white" stroke-width="1.34987"/>
<path d="M610.185 857.619L688.738 761.678" stroke="white" stroke-width="1.34987"/>
<path d="M607.191 839.271L688.739 761.682" stroke="white" stroke-width="1.34987"/>
<path d="M604.271 821.063L688.74 761.686" stroke="white" stroke-width="1.34987"/>
<path d="M602.127 802.632L688.741 761.679" stroke="white" stroke-width="1.34987"/>
<path d="M600.193 784.28L688.738 761.68" stroke="white" stroke-width="1.34987"/>
<path d="M598.903 765.074L688.74 761.325" stroke="white" stroke-width="1.34987"/>
<path d="M599.459 751.679L688.949 756.436" stroke="white" stroke-width="1.34987"/>
<path d="M600.014 740.766L689.437 748.925" stroke="white" stroke-width="1.34987"/>
<path d="M601.424 730.133L690.353 741.197" stroke="white" stroke-width="1.34987"/>
<path d="M602.906 719.635L691.482 733.535" stroke="white" stroke-width="1.34987"/>
<path d="M604.457 708.936L692.611 725.885" stroke="white" stroke-width="1.34987"/>
<path d="M606.926 698.657L694.444 718.23" stroke="white" stroke-width="1.34987"/>
<path d="M609.396 688.37L696.28 710.566" stroke="white" stroke-width="1.34987"/>
<path d="M612.084 678.16L698.188 703.049" stroke="white" stroke-width="1.34987"/>
<path d="M615.267 668.232L700.734 695.391" stroke="white" stroke-width="1.34987"/>
<path d="M618.733 657.458L703.352 687.17" stroke="white" stroke-width="1.34987"/>
<path d="M622.341 647.67L705.971 679.651" stroke="white" stroke-width="1.34987"/>
<path d="M626.234 638.1L709.156 672.208" stroke="white" stroke-width="1.34987"/>
<path d="M630.268 628.453L712.34 664.76" stroke="white" stroke-width="1.34987"/>
<path d="M634.585 619.017L715.596 657.452" stroke="white" stroke-width="1.34987"/>
<path d="M639.255 609.937L719.274 650.287" stroke="white" stroke-width="1.34987"/>
<path d="M643.996 600.649L723.025 642.915" stroke="white" stroke-width="1.34987"/>
<path d="M648.88 591.638L726.918 635.818" stroke="white" stroke-width="1.34987"/>
<path d="M654.194 582.772L731.028 628.797" stroke="white" stroke-width="1.34987"/>
<path d="M659.432 574.12L735.345 621.848" stroke="white" stroke-width="1.34987"/>
<path d="M665.523 564.686L740.091 614.329" stroke="white" stroke-width="1.34987"/>
<path d="M671.259 556.31L744.764 607.728" stroke="white" stroke-width="1.34987"/>
<path d="M677.209 548.011L749.51 600.917" stroke="white" stroke-width="1.34987"/>
<path d="M683.369 539.776L754.395 594.386" stroke="white" stroke-width="1.34987"/>
<path d="M689.814 531.764L759.566 588.076" stroke="white" stroke-width="1.34987"/>
<path d="M696.263 523.744L764.669 581.618" stroke="white" stroke-width="1.34987"/>
<path d="M702.922 516.151L770.124 575.514" stroke="white" stroke-width="1.34987"/>
<path d="M709.933 508.556L775.789 569.481" stroke="white" stroke-width="1.34987"/>
<path d="M716.804 501.034L781.244 563.379" stroke="white" stroke-width="1.34987"/>
<path d="M724.172 493.793L787.052 557.628" stroke="white" stroke-width="1.34987"/>
<path d="M732.246 486.19L793.425 551.588" stroke="white" stroke-width="1.34987"/>
<path d="M739.686 479.097L799.449 545.913" stroke="white" stroke-width="1.34987"/>
<path d="M747.483 472.349L805.474 540.586" stroke="white" stroke-width="1.34987"/>
<path d="M755.418 465.891L811.921 535.406" stroke="white" stroke-width="1.34987"/>
<path d="M763.497 459.361L818.301 530.437" stroke="white" stroke-width="1.34987"/>
<path d="M771.717 453.108L824.678 525.463" stroke="white" stroke-width="1.34987"/>
<path d="M780.149 447.286L831.41 520.849" stroke="white" stroke-width="1.34987"/>
<path d="M788.723 441.387L838 516.3" stroke="white" stroke-width="1.34987"/>
<path d="M797.443 435.777L844.805 511.826" stroke="white" stroke-width="1.34987"/>
<path d="M806.513 430.52L851.678 507.848" stroke="white" stroke-width="1.34987"/>
<path d="M816.296 424.906L859.265 503.513" stroke="white" stroke-width="1.34987"/>
<path d="M825.22 420.075L866.416 499.748" stroke="white" stroke-width="1.34987"/>
<path d="M834.155 415.95L874.359 496.12" stroke="white" stroke-width="1.34987"/>
<path d="M843.084 411.825L882.083 492.423" stroke="white" stroke-width="1.34987"/>
<path d="M852.014 407.702L889.879 488.867" stroke="white" stroke-width="1.34987"/>
<path d="M860.947 403.575L897.82 485.239" stroke="white" stroke-width="1.34987"/>
<path d="M869.877 399.451L905.615 481.684" stroke="white" stroke-width="1.34987"/>
<path d="M878.805 395.322L913.41 478.124" stroke="white" stroke-width="1.34987"/>
<path d="M887.738 391.202L921.28 474.36" stroke="white" stroke-width="1.34987"/>
<path d="M896.955 387.649L929.15 471.304" stroke="white" stroke-width="1.34987"/>
<path d="M907.166 384.298L938.013 468.452" stroke="white" stroke-width="1.34987"/>
<path d="M916.374 381.095L946.018 465.677" stroke="white" stroke-width="1.34987"/>
<path d="M925.805 377.965L954.1 463.044" stroke="white" stroke-width="1.34987"/>
<path d="M935.229 374.826L962.32 460.333" stroke="white" stroke-width="1.34987"/>
<path d="M944.663 371.7L970.336 457.563" stroke="white" stroke-width="1.34987"/>
<path d="M954.088 368.567L978.344 454.786" stroke="white" stroke-width="1.34987"/>
<path d="M963.587 365.927L986.637 452.573" stroke="white" stroke-width="1.34987"/>
<path d="M973.373 363.858L994.792 450.79" stroke="white" stroke-width="1.34987"/>
<path d="M983.154 361.791L1003.16 449.08" stroke="white" stroke-width="1.34987"/>
<path d="M992.869 359.575L1011.45 447.219" stroke="white" stroke-width="1.34987"/>
</g>
</g>
</g>
</g>
<defs>
<clipPath id="clip0_90_595">
<rect width="881.464" height="1214.88" fill="white" transform="translate(395.579 1056.54) rotate(-116.633)"/>
</clipPath>
</defs>
</svg>
