<svg width="1396" height="310" viewBox="0 0 1396 310" fill="none" xmlns="http://www.w3.org/2000/svg">
<path fill-rule="evenodd" clip-rule="evenodd" d="M85.6974 53.2637C93.1904 53.2637 101.694 53.6846 106.745 54.4424C111.376 55.2001 118.027 56.5471 121.479 57.4732C124.931 58.3994 131.75 61.0935 136.633 63.535C143.705 66.9869 146.652 69.0917 151.451 73.8064C155.408 77.6792 158.439 81.6362 160.207 85.1723C161.722 88.2031 163.49 93.0862 164.08 96.1171C164.753 99.148 165.258 106.725 165.258 124.742L157.008 127.352C152.545 128.783 145.81 131.309 142.106 133.077C138.401 134.761 132.929 137.876 129.982 139.897C127.035 142.001 122.573 146.127 119.963 149.158C117.438 152.189 114.322 155.388 113.144 156.314C111.965 157.24 107.924 158.924 104.22 160.187C100.515 161.45 91.254 163.807 83.5926 165.575C75.9312 167.259 67.4279 169.616 64.6495 170.711C61.8712 171.805 57.9984 173.826 55.9778 175.257C53.5362 177.025 51.7683 179.298 50.1687 182.582C48.569 186.034 47.8112 189.317 47.4745 193.779C47.1377 199.336 47.3903 200.683 49.3267 204.892C50.9264 208.26 52.6943 210.533 55.1359 212.301C57.1565 213.733 60.6084 215.501 62.9657 216.258C65.4915 217.016 69.9536 217.605 74.3316 217.521C78.2886 217.521 83.9294 216.848 86.9603 216.09C89.9912 215.332 94.5375 213.648 96.9791 212.47C99.5048 211.207 103.462 208.428 105.651 206.155C107.924 203.966 110.786 199.841 112.134 196.894C113.481 194.032 115.838 186.96 117.185 181.151C118.616 175.341 120.721 168.69 121.816 166.417C122.994 164.06 125.267 160.524 127.035 158.419C128.719 156.314 132.424 152.778 135.286 150.505C138.065 148.232 143.453 144.948 147.157 143.18C150.862 141.412 157.513 139.055 161.891 137.876C166.269 136.697 178.982 134.172 190.095 132.235C201.208 130.383 213.163 127.942 216.615 126.847C220.067 125.753 224.782 123.564 227.139 122.048C230.17 120.027 231.77 118.259 232.864 115.481C234.211 112.282 234.295 111.103 233.538 108.072C233.032 106.136 231.685 103.526 230.675 102.179C229.581 100.916 226.971 99.0638 224.95 98.0535C222.929 97.1274 218.046 95.612 214.089 94.8543C208.869 93.7598 204.492 93.5072 198.093 93.7598C190.937 94.0966 188.158 94.6017 183.78 96.4539C180.75 97.7168 177.887 98.9796 177.466 99.148C177.045 99.4006 176.287 97.7168 175.866 95.5278C175.53 93.3388 174.435 89.3818 173.509 86.8561C172.667 84.3303 170.815 80.2891 169.468 78.016C168.121 75.6586 164.753 71.2807 161.975 68.0814C159.112 64.9663 156.839 62.188 156.839 61.767C156.839 61.4303 158.607 60.3358 160.796 59.3255C163.069 58.231 167.279 56.7997 170.31 56.1262C173.341 55.4527 181.676 54.4424 188.832 53.853C198.851 53.0953 204.66 53.0953 214.51 53.853C221.414 54.3582 230.338 55.6211 234.295 56.5472C238.252 57.4733 243.556 59.0729 246.082 59.999C248.608 60.9251 253.407 63.1141 256.606 64.7979C260.226 66.6501 264.688 70.0178 267.972 73.3854C271.424 76.8373 274.455 80.8785 276.138 84.3303C277.57 87.3612 279.338 92.0759 280.095 94.8543C280.769 97.6326 281.779 103.105 282.284 107.062C282.874 111.693 282.958 125.163 282.705 144.948C282.369 161.871 281.863 180.224 281.443 185.781C280.937 191.338 279.843 199.083 278.917 203.04C277.906 206.997 275.717 213.227 273.865 216.932C272.097 220.636 268.561 226.109 266.12 229.055C263.678 232.086 259.384 236.38 256.606 238.569C253.828 240.758 248.86 243.873 245.661 245.473C242.462 247.072 235.979 249.514 231.349 250.945C226.718 252.376 218.383 254.313 212.826 255.323C205.333 256.586 198.935 257.091 188.411 257.175C180.244 257.175 171.741 256.754 168.626 256.165C165.595 255.66 161.217 254.565 158.944 253.808C156.587 253.05 152.63 251.787 145.473 249.177L151.367 243.621C154.734 240.421 159.702 234.359 162.901 229.561C165.932 224.93 169.131 219.289 169.973 217.1C171.152 214.154 171.909 213.227 172.836 213.648C173.509 213.901 176.203 214.911 178.729 215.922C182.097 217.1 185.464 217.605 190.937 217.605C195.736 217.605 200.366 217.1 203.565 216.174C206.344 215.332 210.722 213.564 213.247 212.217C215.773 210.87 219.899 207.839 222.34 205.398C224.782 202.956 227.981 198.662 229.328 195.884C230.675 193.106 232.359 188.138 233.032 184.939C233.79 181.403 234.295 174.415 234.295 167.427C234.295 157.745 234.127 155.893 233.032 155.893C232.359 155.893 228.823 157.072 225.203 158.419C221.667 159.85 210.974 162.881 201.461 165.238C191.947 167.596 182.265 170.29 179.992 171.3C177.634 172.226 174.435 173.91 172.836 175.004C171.236 176.015 169.047 178.12 167.952 179.635C166.69 181.487 165.258 186.623 163.49 195.042C162.059 201.946 160.038 209.944 159.028 212.722C157.934 215.501 155.66 220.047 153.892 222.825C152.124 225.604 148.757 229.897 146.399 232.423C144.042 234.865 139.833 238.569 137.054 240.59C134.276 242.526 129.14 245.473 125.688 247.157C122.236 248.756 116.511 250.861 113.06 251.787C109.608 252.797 103.378 254.144 99.168 254.902C94.9585 255.66 84.4345 256.418 75.5944 256.67C65.4915 257.007 57.1565 256.839 52.8627 256.165C49.1583 255.66 43.2649 254.313 39.8131 253.134C36.3612 251.956 30.4678 249.346 26.7634 247.409C22.8064 245.304 18.0075 241.853 14.9766 238.822C11.3564 235.37 8.83058 231.834 6.72579 227.456C4.95777 224.004 2.76888 218.111 1.75858 214.406C0.327326 208.849 -0.00952148 205.313 -0.00952148 194.621C-0.00952148 183.255 0.243073 180.73 2.01109 174.836C3.10558 171.132 5.37877 165.912 6.97841 163.134C8.57805 160.439 12.0299 156.314 14.5556 154.041C17.0814 151.683 21.6277 148.316 24.6586 146.548C27.6895 144.78 32.9936 142.086 36.4454 140.654C39.8973 139.307 46.38 137.203 50.758 136.108C55.1359 134.929 64.8179 133.246 72.2268 132.319C79.6356 131.393 88.7283 129.878 92.4327 128.952C96.1371 128.11 101.273 126.594 103.799 125.584C106.324 124.574 109.692 122.89 111.123 121.711C112.639 120.617 114.659 118.428 115.585 116.912C116.511 115.481 117.269 112.955 117.269 111.44C117.269 110.009 116.764 107.483 116.175 105.968C115.501 104.536 113.565 102.095 111.713 100.579C109.945 99.0638 105.988 97.0433 102.957 96.033C99.0838 94.7701 94.5375 94.0965 87.3812 93.844C79.5514 93.5072 76.0154 93.6756 71.8058 94.7701C68.7749 95.5278 64.7337 97.1274 62.7131 98.2219C60.7767 99.4006 57.9142 102.011 53.7047 107.904H5.29458V105.799C5.29458 104.62 6.22069 100.748 7.39937 97.1274C8.49386 93.5914 10.8512 88.2873 12.6192 85.3406C14.3872 82.4781 17.5023 78.1844 19.6071 75.7428C21.7119 73.3854 26.0899 69.5968 29.2891 67.3237C32.4884 65.0505 37.8767 62.1038 41.0759 60.7567C44.2752 59.4097 50.1686 57.5574 54.1256 56.6313C58.0826 55.7052 63.976 54.5265 67.1753 54.1056C70.3746 53.7688 78.7095 53.3479 85.6974 53.2637Z" fill="#003840"/>
<path fill-rule="evenodd" clip-rule="evenodd" d="M1310.15 0.911621H1361.84V46.6872H1394.32V82.1263H1361.84V133.808C1361.84 176.483 1362.28 186.377 1364.05 190.659C1365.23 193.464 1368.04 197.008 1370.25 198.337C1373.5 200.257 1376.31 200.552 1383.54 199.814C1391.81 198.928 1392.85 199.076 1392.85 201.438C1392.99 202.767 1393.88 210.889 1394.91 219.453C1396.24 230.675 1396.39 235.253 1395.21 235.991C1394.32 236.582 1389.89 237.763 1385.46 238.649C1380.89 239.683 1370.55 240.126 1361.84 239.831C1348.99 239.388 1345 238.502 1338.21 235.401C1333.78 233.186 1327.87 228.904 1325.07 225.803C1322.26 222.702 1318.42 216.943 1316.5 212.808C1314.29 207.935 1312.66 200.405 1311.63 190.659C1310.89 182.537 1310.15 154.777 1310.15 82.1263H1283.58V46.6872H1310.15V0.911621ZM420.484 43.8816C428.606 43.8816 439.533 44.6199 444.849 45.8012C450.165 46.8349 458.434 49.6404 463.307 52.003C468.77 54.5133 475.71 59.5339 481.174 64.9975C487.523 71.4946 491.215 76.5151 493.725 82.8647C497.121 91.5768 497.121 93.2011 498.155 150.79C498.893 206.902 499.189 210.593 506.129 237.173H455.185L452.232 227.279C450.607 221.668 449.279 216.057 449.279 214.728C449.279 213.251 448.835 211.775 448.097 211.332C447.506 211.036 444.996 213.547 442.486 216.943C439.976 220.339 435.251 225.212 432.15 227.722C429.049 230.232 423.437 233.924 419.746 235.844C414.578 238.502 410 239.388 399.073 239.831C391.395 240.126 381.501 239.683 377.219 238.797C373.084 237.911 366.439 235.696 362.453 233.924C358.613 232.004 352.707 227.722 349.163 224.326C345.767 220.782 341.189 214.137 338.974 209.56C335.283 201.881 334.84 199.371 334.84 184.752C334.84 170.429 335.283 167.476 338.531 160.388C340.598 155.958 345.324 149.313 348.868 145.917C352.559 142.373 359.499 137.5 364.372 135.137C369.245 132.775 377.219 129.822 382.092 128.493C387.851 127.016 400.697 125.835 447.064 124.21L447.507 116.827C447.802 112.84 447.211 106.195 446.325 102.061C445.439 98.074 443.224 92.7581 441.452 90.3954C439.68 87.8852 435.546 84.7844 432.297 83.3077C429.049 81.8311 423.437 80.6497 419.746 80.6497C416.054 80.6497 410.738 81.388 407.933 82.1263C405.127 83.0123 400.845 85.5227 398.63 87.7376C396.415 89.9526 393.905 94.2347 391.69 102.799H342.961L343.404 95.1208C343.699 90.5432 345.471 84.1936 347.539 80.059C349.458 76.2198 354.774 69.4273 359.204 65.1451C363.634 60.8629 371.608 55.2516 376.924 52.7413C382.239 50.2311 390.804 47.2778 396.12 46.0965C401.436 44.9152 412.363 43.8816 420.484 43.8816ZM399.811 157.878C397.301 159.059 393.905 161.717 392.281 163.636C390.509 165.408 388.294 168.657 387.26 170.724C386.226 172.792 385.34 177.369 385.34 181.061C385.34 184.752 386.522 189.92 387.851 192.578C389.475 195.679 392.428 198.337 397.153 200.404C402.912 203.062 405.865 203.358 412.658 202.619C417.383 202.176 422.994 200.995 425.209 199.962C427.572 198.928 432.002 196.418 435.251 194.35C438.499 192.135 442.634 188.149 444.406 185.343C447.359 180.913 447.802 178.698 447.359 167.033L447.064 153.743C422.994 153.448 413.396 153.743 410.148 154.481C406.899 155.072 402.322 156.549 399.811 157.878ZM608.755 43.8816C617.319 43.8816 628.985 44.7676 634.596 45.9489C640.207 47.1302 648.919 50.0835 653.792 52.4461C658.665 54.8087 665.9 59.6816 670.035 63.3732C674.022 66.9171 679.338 73.4142 681.7 77.8441C684.506 83.1599 686.278 88.9188 687.754 104.276H638.287L637.401 99.5507C636.958 96.8927 635.039 92.4627 633.267 89.6571C631.495 86.7039 627.656 83.4554 624.259 81.8311C620.568 80.2068 614.809 79.1731 608.755 79.1731C601.519 79.1731 597.68 80.0591 593.398 82.5694C590.297 84.3414 586.31 88.1805 584.833 90.9861C582.766 94.6777 582.175 97.9263 582.766 102.061C583.357 105.752 585.129 109.444 587.639 111.954C590.001 114.317 594.431 116.975 597.68 118.304C600.929 119.485 613.185 122.734 624.998 125.539C637.254 128.64 650.986 133.07 657.04 136.023C662.947 138.829 670.921 144.145 674.76 147.689C678.895 151.38 683.325 157.287 685.392 162.012C688.05 167.919 688.936 172.792 689.083 181.061C689.083 188.591 688.197 194.793 686.278 200.257C684.506 205.573 680.814 211.184 675.794 216.5C671.659 220.93 664.276 226.688 659.551 229.346C654.826 232.004 645.523 235.401 639.026 237.173C630.314 239.388 622.635 240.126 610.231 240.126C600.781 240.126 588.673 239.092 582.914 237.763C577.302 236.582 568 233.186 562.388 230.085C556.187 226.836 548.951 221.077 543.931 215.761C538.467 210.003 534.332 203.948 532.265 198.485C530.493 193.76 529.017 186.967 529.017 176.631H575.53L576.564 182.833C577.155 186.376 578.927 190.806 580.403 192.874C581.88 194.941 585.424 198.042 588.229 199.962C591.035 201.734 596.942 203.948 601.372 204.834C605.801 205.72 612.742 206.016 616.876 205.425C620.863 204.834 625.884 203.505 627.951 202.472C630.018 201.438 633.119 198.928 635.039 197.008C637.106 194.941 638.73 191.102 639.173 186.967C639.764 181.947 639.173 179.141 636.958 175.597C635.039 172.644 630.904 169.248 626.031 167.033C621.897 165.113 609.05 161.126 597.68 158.173C586.31 155.367 571.987 150.642 565.932 147.689C559.878 144.883 552.2 140.306 548.951 137.648C545.703 134.99 541.125 129.231 538.615 124.801C534.628 117.566 534.185 115.646 534.185 102.799C534.185 90.5431 534.628 87.7375 538.172 80.6497C540.387 76.2198 545.702 68.9843 549.985 64.702C554.267 60.5675 560.764 55.3993 564.456 53.332C568.147 51.4124 576.121 48.4591 582.175 46.8348C589.706 44.7675 598.123 43.8816 608.755 43.8816ZM819.913 43.7339C825.967 43.7339 834.975 44.7675 839.847 46.0965C844.72 47.2778 851.365 49.9358 854.614 51.8554C857.862 53.775 863.917 58.7955 868.051 63.2254C872.186 67.5076 877.206 74.0049 879.273 77.6964C881.488 81.388 884.442 87.7375 886.066 91.7244C887.69 95.859 890.053 104.423 891.53 110.921C893.154 118.747 893.892 129.969 893.892 144.145C893.892 158.468 893.154 169.395 891.53 177.369C890.201 183.866 887.1 193.464 884.589 198.78C882.227 204.096 877.502 211.922 874.105 216.352C870.709 220.634 864.212 226.689 859.782 229.642C855.352 232.595 847.378 236.287 842.062 237.763C834.827 239.831 828.773 240.274 817.698 239.831C804.999 239.388 801.75 238.797 794.072 234.958C789.199 232.595 782.702 228.313 774.285 220.191L774.137 309.528H722.455V46.6872H769.708L770.446 57.0236C770.889 62.6348 771.922 67.36 772.661 67.36C773.399 67.36 775.319 65.5881 776.648 63.5208C778.124 61.3059 782.554 57.1712 786.689 54.218C790.676 51.2647 797.321 47.7209 801.455 46.3919C805.737 44.9153 813.416 43.7339 819.913 43.7339ZM777.534 95.5637C774.285 100.437 774.285 101.323 774.285 143.407V186.229C783.292 195.089 788.165 197.747 793.334 199.371C797.764 200.7 803.818 201.733 806.623 201.733C809.429 201.733 814.302 200.995 817.255 200.257C820.356 199.371 825.229 196.565 828.182 194.055C831.135 191.397 834.975 186.524 836.599 183.276C838.223 180.027 840.438 173.087 841.472 167.771C842.653 162.455 843.539 152.266 843.539 144.883C843.539 137.5 842.505 126.868 841.324 121.257C840.143 115.646 838.371 109.001 837.337 106.491C836.451 103.98 833.793 99.4029 831.726 96.1543C829.511 92.7581 825.081 88.9189 821.242 86.9993C816.664 84.6367 812.087 83.603 805.885 83.603C799.831 83.603 794.515 84.7843 788.904 87.1469C783.883 89.3619 779.749 92.4627 777.534 95.5637ZM1002.28 43.8816C1009.66 43.7339 1019.55 44.4722 1024.43 45.3582C1029.3 46.2442 1037.57 49.0499 1042.88 51.5601C1048.35 54.0704 1055.73 59.2386 1060.01 63.5208C1064.3 67.8031 1069.91 75.6292 1072.86 81.8311C1075.96 87.5899 1079.36 96.5974 1080.54 101.766C1081.72 106.786 1083.2 121.109 1084.97 155.958L969.791 156.696L970.382 162.603C970.529 165.851 972.006 171.463 973.335 175.154C974.664 178.846 977.765 184.309 980.127 187.41C982.785 190.806 987.954 194.793 992.679 197.008C1000.06 200.552 1002.28 200.995 1017.04 200.848C1025.9 200.848 1036.24 199.961 1039.93 198.928C1043.62 197.894 1051.3 194.793 1067.25 187.41L1072.27 198.633C1075.07 204.834 1078.18 212.07 1081.28 219.453L1074.34 223.883C1070.35 226.246 1061.93 230.085 1055.44 232.595C1048.94 234.958 1038.6 237.616 1032.55 238.649C1025.76 239.831 1014.09 240.126 1002.28 239.683C986.92 239.24 981.161 238.354 973.483 235.548C968.167 233.481 960.341 229.642 955.911 226.836C951.481 224.031 944.541 217.976 940.554 213.547C936.567 209.117 930.66 200.109 927.559 193.612C923.868 186.229 920.915 177.369 919.586 169.986C918.404 163.489 917.371 151.823 917.371 144.145C917.371 136.466 918.404 124.21 919.586 116.827C921.21 107.229 923.72 99.6983 928.445 89.9526C933.318 79.9115 937.601 73.7095 944.393 66.7693C949.857 61.1581 957.24 55.5469 962.851 52.7413C967.872 50.2311 975.845 47.2778 980.571 46.0965C985.148 44.9152 994.894 43.8816 1002.28 43.8816ZM983.228 90.9861C980.275 93.7917 976.584 99.1076 975.107 102.799C973.483 106.491 972.006 112.397 971.711 116.089L971.268 122.734H1033.29C1034.02 116.975 1033.14 111.068 1031.81 105.752C1030.48 100.437 1028.27 94.53 1026.79 92.4628C1025.31 90.3955 1021.92 87.7376 1019.11 86.4086C1016.3 84.932 1011.43 83.6029 1008.18 83.0123C1004.93 82.5693 999.176 83.0124 995.337 84.046C991.202 85.0797 986.477 87.8852 983.228 90.9861ZM1196.45 44.3246C1210.48 44.7676 1216.98 45.6536 1223.77 48.0162C1228.64 49.7882 1235.88 53.3321 1239.87 55.99C1243.85 58.648 1250.06 64.1114 1253.6 68.0983C1257.29 72.2329 1261.72 78.8778 1263.64 82.8647C1265.56 86.9992 1267.78 94.2347 1268.66 99.1076C1269.55 103.98 1270.29 110.182 1270.29 117.565H1223.77L1222.74 110.921C1222 107.229 1220.52 102.061 1219.19 99.5507C1217.87 96.8927 1215.35 93.0533 1213.58 91.2814C1211.96 89.3618 1208.56 86.7038 1206.05 85.3749C1203.54 84.1936 1198.08 83.1599 1193.5 83.1599C1188.92 83.1599 1182.43 84.4889 1178.73 85.9655C1174.6 87.7375 1170.61 90.9861 1167.95 94.6777C1165.74 97.9263 1162.34 105.309 1160.57 110.921C1157.91 119.633 1157.32 124.801 1157.32 142.668C1157.32 160.535 1157.91 165.851 1160.57 174.416C1162.49 180.47 1165.89 187.115 1168.84 190.659C1172.09 194.498 1176.22 197.451 1181.1 199.223C1185.08 200.552 1190.7 201.733 1193.5 201.733C1196.31 201.733 1201.18 200.847 1204.28 199.814C1207.38 198.928 1212.25 195.679 1215.06 192.874C1218.31 189.477 1220.67 185.048 1223.77 172.201H1271.02L1269.84 181.356C1269.1 186.524 1267.48 193.317 1266.15 196.565C1264.97 199.814 1262.02 205.13 1259.95 208.378C1257.73 211.627 1252.42 217.534 1247.99 221.373C1243.56 225.36 1236.77 230.232 1232.63 232.152C1228.64 234.072 1221.56 236.73 1217.13 237.911C1212.4 239.24 1202.51 240.126 1193.5 240.126C1184.64 240.126 1173.86 239.092 1168.4 237.763C1163.08 236.582 1154.81 233.481 1149.94 230.823C1145.07 228.313 1136.95 221.963 1131.93 216.943C1125.28 210.446 1120.85 204.096 1116.72 195.532C1113.47 188.739 1109.78 178.55 1108.59 172.939C1107.27 166.737 1106.38 154.334 1106.38 142.373C1106.38 128.788 1107.12 118.452 1108.74 111.364C1110.07 105.457 1112.88 96.8927 1114.8 92.4628C1116.72 88.0329 1121.29 80.2068 1124.98 75.1862C1128.53 70.018 1135.03 63.3731 1139.31 60.1245C1143.44 57.0236 1149.35 53.1844 1152.16 51.8554C1154.96 50.3788 1162.05 48.0162 1167.66 46.5396C1175.93 44.3246 1181.69 43.8816 1196.45 44.3246Z" fill="#003840"/>
</svg>
