<svg width="205" height="251" viewBox="0 0 205 251" fill="none" xmlns="http://www.w3.org/2000/svg">
<path d="M282.894 53.8955L213.126 88.7796L135.823 44.1628L158.672 32.7209L205.591 9.27881L282.894 53.8955Z" stroke="white" stroke-width="1.7442" stroke-linecap="round" stroke-linejoin="round"/>
<path d="M299.115 327.911L279.231 299.131H279.196C279.684 297.492 279.894 295.852 279.894 294.108V283.189C279.894 281.445 279.789 279.562 279.545 277.538L315.755 267.003L293.08 209.026L278.045 170.619L277.068 168.072L276.405 168.002L269.533 167.339L235.277 164.06C232.696 160.432 230.079 156.909 227.393 153.456C224.672 150.002 221.777 146.723 218.742 143.653L217.556 132.176L217.381 130.327L213.126 88.7805L135.822 44.1289L130.171 92.5131C127.381 92.234 124.555 92.234 121.764 92.4782C120.962 92.548 120.194 92.6527 119.427 92.7922C117.439 93.0364 115.52 93.3852 113.671 93.8387V93.7689L71.8451 49.5708L33.1936 103.85L69.4032 156.211C69.159 157.956 69.0544 159.7 69.0544 161.444V172.363C69.0544 174.107 69.159 175.991 69.4032 178.014L33.1936 188.549L71.8451 287.48L113.671 291.457C116.253 295.12 118.869 298.643 121.59 302.097C124.276 305.515 127.171 308.794 130.171 311.899L135.822 366.737L213.126 411.389L218.742 363.005C221.568 363.319 224.393 363.319 227.184 363.005C230.009 362.76 232.696 362.307 235.277 361.644L260.01 387.912H260.045L276.754 405.738L315.406 351.458L300.022 329.236L299.115 327.911ZM209.986 288.178C207.3 289.713 204.439 290.724 201.405 291.178C199.765 291.492 198.091 291.597 196.346 291.527C189.928 291.352 182.881 289.05 175.172 284.655C163.66 277.992 153.648 268.399 145.137 255.805C144.439 254.794 143.776 253.782 143.148 252.736C142.136 251.166 141.16 249.526 140.218 247.887C139.695 246.98 139.206 246.073 138.718 245.201C133.625 235.922 130.067 226.747 128.008 217.747C126.648 211.677 125.95 205.677 125.95 199.747C125.95 184.154 130.729 173.619 140.218 168.072C149.671 162.525 161.358 163.746 175.172 171.7C181.555 175.398 187.556 180.107 193.067 185.758C196.102 188.863 199.032 192.247 201.823 195.944C204.684 199.747 207.405 203.898 209.986 208.328C213.37 214.189 216.161 219.98 218.323 225.701C219.998 229.921 221.288 234.142 222.265 238.294C223.661 244.468 224.393 250.573 224.393 256.573C224.393 272.166 219.579 282.701 209.986 288.178Z" stroke="white" stroke-width="1.7442" stroke-linecap="round" stroke-linejoin="round"/>
<path d="M224.393 256.573C224.393 272.166 219.579 282.701 209.986 288.178C207.3 289.713 204.439 290.725 201.404 291.178C199.765 291.492 198.09 291.597 196.346 291.527C189.928 291.353 182.881 289.05 175.172 284.655C163.66 277.992 153.648 268.399 145.136 255.806C144.439 254.794 143.776 253.782 143.148 252.736C142.136 251.166 141.16 249.527 140.218 247.887C139.695 246.98 139.206 246.073 138.718 245.201C133.625 235.922 130.067 226.747 128.008 217.747C126.648 211.677 125.95 205.677 125.95 199.747C125.95 184.154 130.729 173.619 140.218 168.072C149.671 162.526 161.358 163.747 175.172 171.7C181.555 175.398 187.555 180.107 193.067 185.758C196.102 188.863 199.032 192.247 201.823 195.945C203.951 201.596 206.672 207.282 209.986 213.003C211.556 215.759 213.195 218.41 214.905 220.922C216.021 222.561 217.172 224.166 218.323 225.701C219.998 229.922 221.288 234.143 222.265 238.294C223.66 244.468 224.393 250.573 224.393 256.573Z" stroke="white" stroke-width="1.7442" stroke-linecap="round" stroke-linejoin="round"/>
<path d="M158.673 32.7211L135.824 44.1282L130.172 92.5124C127.382 92.2333 124.556 92.2333 121.765 92.4775C120.963 92.5473 120.196 92.6519 119.428 92.7915C117.44 93.0357 115.521 93.3845 113.672 93.838V93.7682L71.8462 49.5701L141.614 14.7209L158.673 32.756V32.7211Z" stroke="white" stroke-width="1.7442" stroke-linecap="round" stroke-linejoin="round"/>
</svg>
