<svg width="277" height="251" viewBox="0 0 277 251" fill="none" xmlns="http://www.w3.org/2000/svg">
<path d="M225.369 214.142V308.814L207.01 298.212V403.419L133.677 361.079V255.872L115.353 245.304V150.632C115.353 139.047 118.943 131.223 126.124 127.124L128.393 126.007C135.099 123.263 142.992 124.516 152.001 129.733L183.097 147.685L188.685 150.903C198.779 156.729 207.416 165.806 214.597 178.204C221.778 190.601 225.369 202.558 225.369 214.142Z" stroke="white" stroke-width="1.69361" stroke-linecap="round" stroke-linejoin="round"/>
<path d="M202.437 100.975C202.437 111.136 199.32 118.012 193.054 121.603C190.039 123.296 186.72 124.008 183.096 123.737C179.201 123.432 174.967 121.908 170.36 119.266C166.363 116.962 162.637 114.083 159.182 110.594C154.948 106.394 151.121 101.313 147.666 95.3857C141.4 84.5805 138.283 74.114 138.283 63.9185C138.283 53.723 141.4 46.8809 147.666 43.3243L148.986 42.6807C154.982 39.9032 162.095 40.8516 170.36 45.6276C179.201 50.7423 186.788 58.7022 193.054 69.5074C197.254 76.7561 200.032 83.8692 201.42 90.8469C202.098 94.2679 202.437 97.6213 202.437 100.975Z" stroke="white" stroke-width="1.69361" stroke-linecap="round" stroke-linejoin="round"/>
<path d="M293.11 180.268V274.941L274.751 284.12L225.366 308.813V214.141C225.366 202.556 221.775 190.599 214.594 178.202C207.413 165.805 198.776 156.727 188.682 150.901L183.094 147.683L151.998 129.731C142.988 124.515 135.096 123.262 128.39 126.005L159.18 110.593C162.635 114.082 166.361 116.961 170.358 119.265C174.964 121.907 179.198 123.431 183.094 123.736C186.718 124.007 190.037 123.296 193.052 121.602L231.26 102.498L256.426 117.029C266.52 122.855 275.157 131.933 282.338 144.33C289.519 156.727 293.11 168.684 293.11 180.268Z" stroke="white" stroke-width="1.69361" stroke-linecap="round" stroke-linejoin="round"/>
<path d="M270.18 67.1027C270.18 77.2643 267.064 84.1404 260.797 87.7308L259.476 88.3744L231.261 102.499L193.053 121.603C199.319 118.012 202.436 111.136 202.436 100.975C202.436 97.6215 202.097 94.2681 201.419 90.8471C200.031 83.8694 197.253 76.7563 193.053 69.5076C186.787 58.7024 179.2 50.7425 170.359 45.6278C162.094 40.8518 154.981 39.9034 148.985 42.6809L215.409 9.4523C221.675 5.89573 229.229 6.64092 238.103 11.7556C246.944 16.8703 254.531 24.8302 260.797 35.6355C267.064 46.4407 270.18 56.9411 270.18 67.1027Z" stroke="white" stroke-width="1.69361" stroke-linecap="round" stroke-linejoin="round"/>
</svg>
