<svg width="205" height="251" viewBox="0 0 205 251" fill="none" xmlns="http://www.w3.org/2000/svg">
<path d="M253.069 317.788C252.216 303.499 247.405 288.84 238.667 273.811C230.726 260.12 221.418 249.361 210.773 241.534C208.41 239.798 205.962 238.204 203.458 236.752C199.046 234.19 194.833 232.34 190.848 231.23C183.334 229.01 176.531 229.266 170.497 231.999L168.22 233.137C164.861 235.044 162.1 237.577 159.937 240.708C155.753 246.657 153.675 254.798 153.675 265.158C153.675 275.519 155.753 286.108 159.937 296.867C162.129 302.531 164.861 308.224 168.22 313.974C177.926 330.71 189.681 343.063 203.458 351.033C217.234 358.974 228.961 360.198 238.667 354.648C248.401 349.126 253.24 338.452 253.24 322.626C253.24 321.004 253.183 319.41 253.069 317.788ZM196.228 315.425L179.748 286.962L176.076 280.643L186.522 274.409L190.649 281.525L196.228 291.146L220.393 277.967L230.839 295.985L196.228 315.425Z" stroke="white" stroke-width="1.42317" stroke-linecap="round" stroke-linejoin="round"/>
<path d="M140.894 86.3785L111.007 69.1297L54.0803 36.2544V253.374L69.0236 244.834L83.9669 270.594L98.9102 262.083L113.825 287.843L128.768 279.332L143.712 305.092L145.192 304.238C141.378 295.386 138.531 286.733 136.624 278.307C134.717 269.854 133.749 261.656 133.749 253.658C133.749 251.552 133.778 249.616 133.863 247.852C133.949 246.115 134.176 244.351 134.49 242.643L83.9669 213.468V190.612L105.172 202.851L111.007 206.238L140.467 223.259C142.289 219.929 144.423 217.054 146.814 214.635C149.234 212.215 151.852 210.194 154.67 208.601L126.377 192.263L111.007 183.382L83.9669 167.755V144.928L105.172 157.167L111.007 160.526L140.894 177.775L175.904 197.984L182.906 202.025L203.456 213.895C203.94 214.179 204.424 214.464 204.908 214.777C207.612 216.371 210.288 218.164 212.963 220.128C214.899 221.523 216.834 223.003 218.77 224.597C223.836 228.753 228.675 233.506 233.315 238.857V139.747L140.894 86.3785ZM203.456 191.039L200.838 189.53L197.109 187.367L126.377 146.55L111.007 137.67L83.9669 122.072V99.2155L105.172 111.455L111.007 114.842L140.894 132.091L203.456 168.211V191.039Z" stroke="white" stroke-width="1.42317" stroke-linecap="round" stroke-linejoin="round"/>
<path d="M105.144 111.455L83.9673 122.072V99.2156L105.144 111.455Z" stroke="white" stroke-width="1.42317" stroke-linecap="round" stroke-linejoin="round"/>
<path d="M203.457 168.21V191.038L200.838 189.53L197.109 187.366L126.349 146.55L111.008 137.669L83.9673 122.071L105.144 111.454L111.008 114.841L140.894 132.09L203.457 168.21Z" stroke="white" stroke-width="1.42317" stroke-linecap="round" stroke-linejoin="round"/>
<path d="M290.241 111.284L247.802 132.489L233.315 139.747L140.894 86.3781L111.007 69.1293L54.0803 36.254L111.007 7.79065L290.241 111.284Z" stroke="white" stroke-width="1.42317" stroke-linecap="round" stroke-linejoin="round"/>
<path d="M191.417 214.179C191.104 215.887 190.876 217.652 190.791 219.388C190.791 220.185 190.734 221.039 190.705 221.893L168.219 233.136C164.861 235.043 162.1 237.576 159.936 240.707C155.752 246.656 153.674 254.797 153.674 265.157C153.674 275.518 155.752 286.107 159.936 296.867L145.192 304.239C141.378 295.387 138.532 286.734 136.625 278.307C134.718 269.854 133.75 261.656 133.75 253.658C133.75 251.552 133.778 249.616 133.864 247.851C133.949 246.115 134.177 244.35 134.49 242.643L139.699 240.052L191.417 214.179Z" stroke="white" stroke-width="1.42317" stroke-linecap="round" stroke-linejoin="round"/>
<path d="M310.165 294.163C310.165 309.988 305.326 320.662 295.592 326.184L292.546 327.693L238.665 354.648C248.4 349.126 253.238 338.452 253.238 322.626C253.238 321.004 253.181 319.41 253.068 317.787C252.214 303.499 247.403 288.84 238.665 273.811C230.724 260.12 221.416 249.362 210.771 241.534C208.408 239.798 205.961 238.204 203.456 236.752C199.044 234.191 194.831 232.34 190.846 231.23C183.332 229.01 176.529 229.266 170.495 231.999L190.704 221.894L204.907 214.778C207.611 216.372 210.287 218.165 212.963 220.129C214.898 221.524 216.834 223.004 218.769 224.598C223.836 228.754 228.674 233.507 233.314 238.859L274.216 218.393C282.186 225.538 289.33 234.532 295.592 245.348C305.326 262.084 310.165 278.366 310.165 294.163Z" stroke="white" stroke-width="1.42317" stroke-linecap="round" stroke-linejoin="round"/>
<path d="M105.173 157.168L83.9673 167.757V144.929L105.173 157.168Z" stroke="white" stroke-width="1.42317" stroke-linecap="round" stroke-linejoin="round"/>
<path d="M175.876 197.984L154.642 208.601L126.378 192.263L111.008 183.382L83.9673 167.756L105.173 157.167L111.008 160.526L140.894 177.775L175.876 197.984Z" stroke="white" stroke-width="1.42317" stroke-linecap="round" stroke-linejoin="round"/>
<path d="M105.144 202.851L83.9673 213.468V190.612L105.144 202.851Z" stroke="white" stroke-width="1.42317" stroke-linecap="round" stroke-linejoin="round"/>
<path d="M191.417 214.179L139.67 240.052L134.49 242.643L83.9673 213.468L105.144 202.851L111.008 206.238L140.467 223.259L176.16 205.384L191.417 214.179Z" stroke="white" stroke-width="1.42317" stroke-linecap="round" stroke-linejoin="round"/>
<path d="M182.907 202.026L176.19 205.384L140.468 223.259C142.29 219.929 144.424 217.054 146.815 214.635C149.235 212.216 151.853 210.195 154.671 208.601L175.905 197.984L182.907 202.026Z" stroke="white" stroke-width="1.42317" stroke-linecap="round" stroke-linejoin="round"/>
</svg>
