<svg width="223" height="251" viewBox="0 0 223 251" fill="none" xmlns="http://www.w3.org/2000/svg">
<path d="M142.116 99.6759C142.116 109.021 139.224 115.333 133.441 118.613C127.657 121.928 120.675 121.223 112.564 116.532C104.418 111.842 97.4708 104.507 91.6874 94.5273C85.8687 84.5122 82.9771 74.8497 82.9771 65.5399C82.9771 56.2301 85.8687 49.8825 91.6874 46.6029L93.5211 45.686C98.9166 43.4643 105.264 44.487 112.564 48.6835C120.675 53.3736 127.657 60.7087 133.441 70.6885C139.224 80.7036 142.116 90.3308 142.116 99.6759Z" stroke="white" stroke-width="1.76323" stroke-miterlimit="10" stroke-linecap="round" stroke-linejoin="round"/>
<path d="M142.116 303.258C142.116 312.568 139.224 318.881 133.441 322.195C127.657 325.51 120.675 324.805 112.564 320.115C104.418 315.425 97.4708 308.09 91.6874 298.074C85.8687 288.095 82.9771 278.432 82.9771 269.122C82.9771 259.812 85.8687 253.465 91.6874 250.15C97.4708 246.87 104.418 247.54 112.564 252.266C120.675 256.956 127.657 264.291 133.441 274.271C139.224 284.251 142.116 293.913 142.116 303.258Z" stroke="white" stroke-width="1.76323" stroke-miterlimit="10" stroke-linecap="round" stroke-linejoin="round"/>
<path d="M230.841 252.689C230.841 261.999 227.914 268.311 222.13 271.626C219.133 273.354 215.853 273.989 212.221 273.53C208.836 273.142 205.203 271.802 201.254 269.545C193.143 264.855 186.161 257.485 180.377 247.505C174.594 237.525 171.702 227.863 171.702 218.518C171.702 216.543 171.843 214.674 172.125 212.981C173.077 206.669 175.828 202.19 180.377 199.581C186.161 196.301 193.143 196.971 201.254 201.661C209.4 206.387 216.347 213.722 222.13 223.702C227.914 233.681 230.841 243.344 230.841 252.689Z" stroke="white" stroke-width="1.76323" stroke-miterlimit="10" stroke-linecap="round" stroke-linejoin="round"/>
<path d="M142.116 201.449C142.116 210.794 139.224 217.107 133.441 220.422C127.657 223.701 120.675 223.031 112.564 218.306C104.418 213.615 97.4708 206.28 91.6874 196.301C85.8687 186.321 82.9771 176.658 82.9771 167.313C82.9771 157.968 85.8687 151.691 91.6874 148.376L93.5211 147.459C98.9166 145.238 105.264 146.26 112.564 150.457C120.675 155.147 127.657 162.482 133.441 172.497C139.224 182.477 142.116 192.139 142.116 201.449Z" stroke="white" stroke-width="1.76323" stroke-miterlimit="10" stroke-linecap="round" stroke-linejoin="round"/>
<path d="M230.841 150.88C230.841 160.225 227.914 166.538 222.13 169.853C219.168 171.545 215.853 172.18 212.256 171.722C208.871 171.334 205.203 169.994 201.254 167.737C193.143 163.047 186.161 155.712 180.377 145.732C174.594 135.752 171.702 126.089 171.702 116.744C171.702 114.769 171.843 112.9 172.09 111.208C173.077 104.86 175.828 100.382 180.377 97.8072L182.211 96.8903C187.606 94.6687 193.989 95.6913 201.254 99.8878C209.4 104.578 216.347 111.913 222.13 121.928C227.914 131.908 230.841 141.57 230.841 150.88Z" stroke="white" stroke-width="1.76323" stroke-miterlimit="10" stroke-linecap="round" stroke-linejoin="round"/>
<path d="M212.219 273.53C211.267 279.843 208.517 284.321 203.967 286.931L202.134 287.848L133.438 322.195C139.222 318.881 142.113 312.568 142.113 303.258C142.113 293.949 139.222 284.251 133.438 274.271C127.655 264.291 120.673 256.956 112.562 252.266C104.416 247.541 97.4684 246.871 91.6851 250.15L162.214 214.886C165.212 213.193 168.491 212.558 172.124 212.981C171.841 214.674 171.7 216.543 171.7 218.518C171.7 227.863 174.592 237.525 180.375 247.505C186.159 257.485 193.141 264.855 201.252 269.546C205.202 271.803 208.834 273.143 212.219 273.53Z" stroke="white" stroke-width="1.76323" stroke-miterlimit="10" stroke-linecap="round" stroke-linejoin="round"/>
<path d="M212.255 171.721C211.303 178.068 208.517 182.547 203.968 185.157L133.439 220.421C139.222 217.106 142.114 210.794 142.114 201.449C142.114 192.104 139.222 182.477 133.439 172.497C127.655 162.482 120.673 155.147 112.562 150.456C105.262 146.26 98.9145 145.237 93.519 147.459L162.214 113.111C165.177 111.419 168.491 110.749 172.088 111.207C171.842 112.9 171.701 114.769 171.701 116.744C171.701 126.089 174.592 135.751 180.376 145.731C186.159 155.711 193.141 163.046 201.252 167.736C205.202 169.993 208.869 171.333 212.255 171.721Z" stroke="white" stroke-width="1.76323" stroke-miterlimit="10" stroke-linecap="round" stroke-linejoin="round"/>
<path d="M212.643 64.4119C212.643 73.757 209.751 80.0693 203.968 83.3489L133.439 118.613C139.222 115.334 142.114 109.021 142.114 99.6764C142.114 90.3313 139.222 80.7041 133.439 70.689C127.655 60.7091 120.673 53.3741 112.562 48.6839C105.262 44.4875 98.9145 43.4648 93.519 45.6864L162.214 11.3387C167.998 8.02385 174.945 8.72914 183.091 13.4193C191.202 18.1095 198.184 25.4445 203.968 35.4244C209.751 45.4396 212.643 55.0668 212.643 64.4119Z" stroke="white" stroke-width="1.76323" stroke-miterlimit="10" stroke-linecap="round" stroke-linejoin="round"/>
<path d="M301.372 115.615C301.372 124.96 298.445 131.273 292.661 134.587L222.132 169.852C227.916 166.537 230.843 160.225 230.843 150.88C230.843 141.535 227.916 131.907 222.132 121.928C216.349 111.912 209.402 104.577 201.256 99.8872C193.991 95.6907 187.608 94.668 182.213 96.8897L250.908 62.5421C256.692 59.2272 263.674 59.9325 271.785 64.6227C279.931 69.3129 286.878 76.6479 292.661 86.663C298.445 96.6429 301.372 106.305 301.372 115.615Z" stroke="white" stroke-width="1.76323" stroke-miterlimit="10" stroke-linecap="round" stroke-linejoin="round"/>
<path d="M301.371 217.424C301.371 226.734 298.444 233.046 292.661 236.361L222.132 271.626C227.915 268.311 230.842 261.999 230.842 252.689C230.842 243.379 227.915 233.681 222.132 223.701C216.349 213.722 209.402 206.387 201.255 201.661C193.145 196.971 186.162 196.301 180.379 199.58L250.908 164.316C256.691 161.036 263.674 161.706 271.785 166.397C279.931 171.122 286.878 178.457 292.661 188.437C298.444 198.417 301.371 208.079 301.371 217.424Z" stroke="white" stroke-width="1.76323" stroke-miterlimit="10" stroke-linecap="round" stroke-linejoin="round"/>
</svg>
