<svg width="745" height="746" viewBox="0 0 745 746" fill="none" xmlns="http://www.w3.org/2000/svg">
<mask id="mask0_172_55" style="mask-type:luminance" maskUnits="userSpaceOnUse" x="0" y="0" width="745" height="746">
<path d="M745 0.633301H0V745.633H745V0.633301Z" fill="white"/>
</mask>
<g mask="url(#mask0_172_55)">
<path d="M464.7 408.133C464.4 407.833 464.3 407.433 464.5 407.033C478.6 370.533 469.9 329.133 442.3 301.433C441.9 301.033 441.9 300.433 442.3 300.033C442.7 299.633 443.3 299.633 443.7 300.033C471.9 328.333 480.8 370.533 466.4 407.733C466.2 408.233 465.6 408.533 465.1 408.333C464.9 408.333 464.8 408.233 464.7 408.133Z" fill="white"/>
<path d="M346.7 266.233C346.3 265.833 346.3 265.233 346.7 264.833C346.8 264.733 347 264.633 347.2 264.533C406.2 250.633 465.2 287.233 479.1 346.233C480 349.933 480.6 353.633 481.1 357.433C481.2 357.933 480.8 358.433 480.2 358.533C479.6 358.633 479.2 358.233 479.1 357.633C471.6 298.633 417.6 256.933 358.6 264.433C354.9 264.933 351.2 265.533 347.6 266.433C347.3 266.633 347 266.533 346.7 266.233Z" fill="white"/>
<path d="M288 455.633C287.6 455.233 287.6 454.633 288 454.233C288.4 453.833 289 453.833 289.4 454.233C335.2 499.933 409.4 499.933 455.2 454.233C455.6 453.833 456.2 453.833 456.6 454.233C457 454.633 457 455.233 456.6 455.633C410.1 502.133 334.6 502.133 288 455.633Z" fill="white"/>
<path d="M222.6 374.833C222.4 374.633 222.3 374.433 222.3 374.133C220.7 291.233 286.7 222.833 369.5 221.233C376.8 221.133 384 221.533 391.2 222.433C391.7 222.533 392.1 223.033 392.1 223.533C392 224.033 391.5 224.433 391 224.433C309.9 214.133 235.7 271.533 225.4 352.633C224.5 359.733 224.1 366.933 224.2 374.133C224.2 374.733 223.8 375.133 223.2 375.133C223.1 375.133 222.8 375.033 222.6 374.833Z" fill="white"/>
<path d="M485.2 485.633C484.8 485.233 484.8 484.633 485.2 484.233C524.1 445.533 540.3 389.533 528 336.033C527.9 335.533 528.2 334.933 528.8 334.833C529.3 334.733 529.9 335.033 530 335.633C542.4 389.833 526 446.533 486.6 485.733C486.2 486.033 485.6 486.033 485.2 485.633Z" fill="white"/>
<path d="M535.701 411.533C535.501 411.333 535.401 410.933 535.401 410.633C549.101 353.833 532.201 294.133 490.901 252.833C490.501 252.433 490.501 251.833 490.901 251.433C491.301 251.033 491.901 251.033 492.301 251.433C534.101 293.133 551.101 353.633 537.301 411.133C537.201 411.633 536.601 412.033 536.101 411.833C536.001 411.733 535.801 411.633 535.701 411.533Z" fill="white"/>
<path d="M342 183.333C341.6 182.933 341.6 182.333 342 181.933C342.1 181.833 342.3 181.733 342.6 181.633C420.7 169.433 498.3 206.233 538.2 274.433C538.5 274.933 538.3 275.533 537.8 275.833C537.3 276.133 536.7 275.933 536.4 275.433C496.9 207.833 420.1 171.433 342.8 183.533C342.5 183.633 342.2 183.533 342 183.333Z" fill="white"/>
<path d="M231.2 231.633C230.8 231.233 230.8 230.633 231.2 230.233C287 174.433 370.4 156.733 444.1 185.033C444.6 185.233 444.9 185.833 444.7 186.333C444.5 186.833 443.9 187.133 443.4 186.933C370.5 158.933 287.9 176.433 232.6 231.633C232.2 232.033 231.6 232.033 231.2 231.633Z" fill="white"/>
<path d="M382.1 144.933C381.7 144.533 381.7 143.933 382.1 143.533C382.3 143.333 382.6 143.233 382.9 143.233C486.8 148.033 574.3 222.333 595.8 324.133C595.9 324.633 595.6 325.233 595 325.333C594.5 325.433 593.9 325.133 593.8 324.533C572.5 223.733 485.7 150.033 382.7 145.233C382.5 145.233 382.2 145.133 382.1 144.933Z" fill="white"/>
<path d="M203.7 540.033C203.3 539.633 203.3 539.033 203.7 538.633C204.1 538.233 204.7 538.233 205.1 538.633C297.5 631.033 447.3 631.033 539.7 538.633C540.1 538.233 540.7 538.233 541.1 538.633C541.5 539.033 541.5 539.633 541.1 540.033C447.9 633.233 296.8 633.233 203.7 540.033Z" fill="white"/>
<path d="M197.2 546.533C150.2 499.833 124 436.133 124.7 369.833C124.7 369.233 125.2 368.833 125.7 368.833C126.3 368.833 126.7 369.333 126.7 369.833C126 481.833 201.1 580.033 309.2 608.833C309.7 609.033 310 609.533 309.9 610.033C309.8 610.533 309.2 610.833 308.7 610.733C266.5 599.533 228 577.333 197.2 546.533Z" fill="white"/>
<path d="M455.4 627.633C455.3 627.533 455.2 627.433 455.2 627.233C455 626.733 455.3 626.133 455.8 625.933C533.8 600.333 595.8 540.333 624 463.333C624.2 462.833 624.8 462.533 625.3 462.733C625.8 462.933 626.1 463.533 625.9 464.033C597.4 541.733 535 602.033 456.4 627.933C456.1 628.033 455.7 627.933 455.4 627.633Z" fill="white"/>
<path d="M604.1 604.533C603.7 604.133 603.7 603.533 604.1 603.133C732.1 475.133 732.1 267.633 604.1 139.633C603.7 139.233 603.7 138.633 604.1 138.233C604.5 137.833 605.1 137.833 605.5 138.233C734.3 267.033 734.3 475.733 605.5 604.533C605.1 604.833 604.5 604.833 604.1 604.533Z" fill="white"/>
<path d="M330.7 22.9333C330.3 22.5333 330.3 21.9333 330.7 21.5333C330.9 21.3333 331.1 21.2333 331.3 21.2333C383.3 15.2333 435.9 20.7333 485.5 37.4333C536.8 54.6333 583.4 83.6333 621.6 122.033C622 122.433 622 123.033 621.6 123.433C621.2 123.833 620.6 123.833 620.2 123.433C582.2 85.2333 535.9 56.4333 484.8 39.2333C435.5 22.6333 383.2 17.1333 331.5 23.1333C331.2 23.2333 330.9 23.1333 330.7 22.9333Z" fill="white"/>
<path d="M157.2 73.0334L157.1 72.9334C156.8 72.5334 156.9 71.8334 157.3 71.5334C255.8 0.833321 382.8 -16.9666 496.9 24.0334C497.4 24.2334 497.7 24.8334 497.5 25.3334C497.3 25.8334 496.7 26.1334 496.2 25.9334C382.7 -14.8666 256.4 2.83331 158.5 73.1334C158.1 73.4334 157.5 73.3334 157.2 73.0334Z" fill="white"/>
</g>
</svg>
