<svg width="976" height="210" viewBox="0 0 976 210" fill="none" xmlns="http://www.w3.org/2000/svg">
<path fill-rule="evenodd" clip-rule="evenodd" d="M58.0422 35.5846C63.1166 35.5846 68.8752 35.8697 72.2962 36.3828C75.4321 36.896 79.9363 37.8082 82.274 38.4354C84.6116 39.0626 89.2299 40.8871 92.5368 42.5405C97.3261 44.8782 99.3217 46.3036 102.572 49.4965C105.251 52.1192 107.304 54.799 108.501 57.1936C109.528 59.2462 110.725 62.5531 111.124 64.6057C111.58 66.6583 111.922 71.7897 111.922 83.9911L106.335 85.7586C103.313 86.7278 98.7515 88.4384 96.2429 89.6357C93.7342 90.776 90.0281 92.8856 88.0325 94.254C86.037 95.6794 83.0151 98.4731 81.2476 100.526C79.5372 102.578 77.4276 104.745 76.6294 105.372C75.8311 105.999 73.0944 107.14 70.5857 107.995C68.077 108.85 61.8053 110.446 56.6168 111.644C51.4284 112.784 45.6698 114.381 43.7882 115.122C41.9067 115.863 39.2839 117.231 37.9156 118.201C36.2621 119.398 35.0648 120.937 33.9815 123.161C32.8982 125.499 32.385 127.722 32.157 130.744C31.9289 134.507 32.1 135.419 33.4114 138.27C34.4947 140.551 35.6919 142.09 37.3454 143.288C38.7138 144.257 41.0515 145.454 42.6479 145.967C44.3584 146.48 47.3802 146.88 50.3451 146.823C53.0248 146.823 56.8449 146.366 58.8974 145.853C60.95 145.34 64.0289 144.2 65.6824 143.402C67.3928 142.546 70.0725 140.665 71.5549 139.125C73.0944 137.643 75.033 134.849 75.9452 132.854C76.8575 130.915 78.4539 126.126 79.3662 122.192C80.3354 118.258 81.7608 113.753 82.502 112.214C83.3003 110.618 84.8397 108.223 86.037 106.797C87.1773 105.372 89.686 102.977 91.6246 101.438C93.5061 99.8985 97.1551 97.6749 99.6638 96.4776C102.173 95.2803 106.677 93.6838 109.642 92.8856C112.606 92.0873 121.216 90.3769 128.742 89.0655C136.268 87.8112 144.364 86.1577 146.702 85.4165C149.04 84.6753 152.232 83.1929 153.829 82.1666C155.881 80.7982 156.965 79.6009 157.706 77.7194C158.618 75.5527 158.675 74.7545 158.162 72.702C157.82 71.3906 156.908 69.6231 156.224 68.7108C155.482 67.8556 153.715 66.6012 152.346 65.9171C150.978 65.2899 147.671 64.2636 144.991 63.7505C141.456 63.0093 138.492 62.8382 134.158 63.0093C129.312 63.2373 127.431 63.5794 124.466 64.8338C122.413 65.689 120.475 66.5442 120.19 66.6583C119.904 66.8293 119.391 65.689 119.106 64.2066C118.878 62.7242 118.137 60.0444 117.51 58.3339C116.94 56.6235 115.685 53.8867 114.773 52.3473C113.861 50.7508 111.58 47.786 109.699 45.6194C107.76 43.5098 106.221 41.6283 106.221 41.3432C106.221 41.1152 107.418 40.3739 108.9 39.6897C110.44 38.9485 113.291 37.9793 115.343 37.5231C117.396 37.067 123.04 36.3828 127.887 35.9837C134.672 35.4706 138.606 35.4706 145.277 35.9837C149.952 36.3258 155.995 37.1811 158.675 37.8082C161.355 38.4354 164.947 39.5187 166.657 40.1459C168.368 40.773 171.618 42.2555 173.784 43.3958C176.236 44.6501 179.258 46.9308 181.482 49.2114C183.819 51.5491 185.872 54.2858 187.012 56.6235C187.981 58.676 189.179 61.8689 189.692 63.7505C190.148 65.632 190.832 69.338 191.174 72.0178C191.573 75.1536 191.63 84.2762 191.459 97.6749C191.231 109.135 190.889 121.565 190.604 125.328C190.262 129.091 189.521 134.336 188.894 137.016C188.209 139.696 186.727 143.915 185.473 146.424C184.275 148.932 181.881 152.638 180.227 154.634C178.574 156.686 175.666 159.594 173.784 161.077C171.903 162.559 168.539 164.669 166.372 165.752C164.206 166.835 159.816 168.489 156.68 169.458C153.544 170.427 147.899 171.739 144.136 172.423C139.062 173.278 134.729 173.62 127.602 173.677C122.071 173.677 116.312 173.392 114.203 172.993C112.15 172.651 109.185 171.91 107.646 171.396C106.05 170.883 103.37 170.028 98.5235 168.261L102.515 164.498C104.795 162.331 108.159 158.226 110.326 154.976C112.378 151.84 114.545 148.02 115.115 146.538C115.913 144.542 116.426 143.915 117.054 144.2C117.51 144.371 119.334 145.055 121.045 145.739C123.325 146.538 125.606 146.88 129.312 146.88C132.562 146.88 135.698 146.538 137.864 145.91C139.746 145.34 142.711 144.143 144.421 143.231C146.132 142.318 148.926 140.266 150.579 138.612C152.232 136.959 154.399 134.051 155.311 132.17C156.224 130.288 157.364 126.924 157.82 124.757C158.333 122.363 158.675 117.63 158.675 112.898C158.675 106.341 158.561 105.087 157.82 105.087C157.364 105.087 154.969 105.885 152.518 106.797C150.123 107.767 142.882 109.819 136.439 111.416C129.996 113.012 123.439 114.837 121.9 115.521C120.304 116.148 118.137 117.288 117.054 118.03C115.97 118.714 114.488 120.139 113.747 121.165C112.891 122.42 111.922 125.898 110.725 131.599C109.756 136.275 108.387 141.691 107.703 143.573C106.962 145.454 105.422 148.533 104.225 150.415C103.028 152.296 100.747 155.204 99.1507 156.914C97.5542 158.568 94.7034 161.077 92.8219 162.445C90.9404 163.756 87.4624 165.752 85.1247 166.892C82.7871 167.976 78.91 169.401 76.5724 170.028C74.2347 170.712 70.0155 171.625 67.1647 172.138C64.3139 172.651 57.187 173.164 51.2003 173.335C44.3584 173.563 38.7138 173.449 35.806 172.993C33.2973 172.651 29.3062 171.739 26.9685 170.94C24.6309 170.142 20.6398 168.375 18.1311 167.063C15.4513 165.638 12.2014 163.3 10.1489 161.248C7.69717 158.91 5.98667 156.515 4.56127 153.55C3.36394 151.213 1.88158 147.222 1.19739 144.713C0.228119 140.95 0 138.555 0 131.314C0 123.617 0.171062 121.907 1.3684 117.916C2.1096 115.407 3.64904 111.872 4.73235 109.99C5.81565 108.166 8.1533 105.372 9.86378 103.833C11.5743 102.236 14.6531 99.9556 16.7057 98.7582C18.7583 97.5609 22.3503 95.7364 24.6879 94.7671C27.0256 93.8549 31.4158 92.4295 34.3806 91.6882C37.3454 90.89 43.9023 89.7497 48.9197 89.1225C53.9371 88.4954 60.0948 87.4691 62.6035 86.8419C65.1122 86.2717 68.5901 85.2454 70.3006 84.5613C72.0111 83.8771 74.2917 82.7368 75.261 81.9385C76.2873 81.1973 77.6557 79.7149 78.2828 78.6886C78.91 77.7194 79.4232 76.0089 79.4232 74.9826C79.4232 74.0133 79.081 72.3028 78.6819 71.2766C78.2258 70.3073 76.9145 68.6538 75.6601 67.6275C74.4628 66.6012 71.783 65.2329 69.7305 64.5487C67.1077 63.6935 64.0289 63.2373 59.1825 63.0663C53.88 62.8382 51.4854 62.9522 48.6346 63.6935C46.582 64.2066 43.8452 65.2899 42.4768 66.0311C41.1655 66.8293 39.227 68.5968 36.3762 72.5879H3.59203V71.1625C3.59203 70.3643 4.2192 67.7416 5.01743 65.2899C5.75863 62.8952 7.35505 59.3032 8.55238 57.3077C9.74972 55.3691 11.8593 52.4613 13.2847 50.8078C14.7101 49.2114 17.675 46.6457 19.8416 45.1063C22.0082 43.5668 25.6572 41.5713 27.8238 40.659C29.9904 39.7468 33.9815 38.4924 36.6612 37.8652C39.341 37.2381 43.3321 36.4398 45.4987 36.1548C47.6653 35.9267 53.3099 35.6416 58.0422 35.5846Z" fill="#FEFEFE"/>
<path fill-rule="evenodd" clip-rule="evenodd" d="M917.05 0.130859H952.05V31.1309H974.05V55.1309H952.05V90.1309C952.05 119.031 952.35 125.731 953.55 128.631C954.35 130.531 956.25 132.931 957.75 133.831C959.95 135.131 961.85 135.331 966.75 134.831C972.35 134.231 973.05 134.331 973.05 135.931C973.15 136.831 973.75 142.331 974.45 148.131C975.35 155.731 975.45 158.831 974.65 159.331C974.05 159.731 971.05 160.531 968.05 161.131C964.95 161.831 957.95 162.131 952.05 161.931C943.35 161.631 940.65 161.031 936.05 158.931C933.05 157.431 929.05 154.531 927.15 152.431C925.25 150.331 922.65 146.431 921.35 143.631C919.85 140.331 918.75 135.231 918.05 128.631C917.55 123.131 917.05 104.331 917.05 55.1309H899.05V31.1309H917.05V0.130859ZM314.55 29.2308C320.05 29.2308 327.45 29.7309 331.05 30.5309C334.65 31.2309 340.25 33.1308 343.55 34.7308C347.25 36.4308 351.95 39.8309 355.65 43.5309C359.95 47.9309 362.45 51.3309 364.15 55.6309C366.45 61.5309 366.45 62.6309 367.15 101.631C367.65 139.631 367.85 142.131 372.55 160.131H338.05L336.05 153.431C334.95 149.631 334.05 145.831 334.05 144.931C334.05 143.931 333.75 142.931 333.25 142.631C332.85 142.431 331.15 144.131 329.45 146.431C327.75 148.731 324.55 152.031 322.45 153.731C320.35 155.431 316.55 157.931 314.05 159.231C310.55 161.031 307.45 161.631 300.05 161.931C294.85 162.131 288.15 161.831 285.25 161.231C282.45 160.631 277.95 159.131 275.25 157.931C272.65 156.631 268.65 153.731 266.25 151.431C263.95 149.031 260.85 144.531 259.35 141.431C256.85 136.231 256.55 134.531 256.55 124.631C256.55 114.931 256.85 112.931 259.05 108.131C260.45 105.131 263.65 100.631 266.05 98.3308C268.55 95.9308 273.25 92.6309 276.55 91.0309C279.85 89.4309 285.25 87.4309 288.55 86.5309C292.45 85.5309 301.15 84.7309 332.55 83.6309L332.85 78.6309C333.05 75.9309 332.65 71.4309 332.05 68.6309C331.45 65.9309 329.95 62.3308 328.75 60.7308C327.55 59.0308 324.75 56.9309 322.55 55.9309C320.35 54.9309 316.55 54.1309 314.05 54.1309C311.55 54.1309 307.95 54.6309 306.05 55.1309C304.15 55.7309 301.25 57.4309 299.75 58.9309C298.25 60.4309 296.55 63.3309 295.05 69.1309H262.05L262.35 63.9309C262.55 60.8309 263.75 56.5308 265.15 53.7308C266.45 51.1308 270.05 46.5309 273.05 43.6309C276.05 40.7309 281.45 36.9308 285.05 35.2308C288.65 33.5308 294.45 31.5308 298.05 30.7308C301.65 29.9308 309.05 29.2308 314.55 29.2308ZM300.55 106.431C298.85 107.231 296.55 109.031 295.45 110.331C294.25 111.531 292.75 113.731 292.05 115.131C291.35 116.531 290.75 119.631 290.75 122.131C290.75 124.631 291.55 128.131 292.45 129.931C293.55 132.031 295.55 133.831 298.75 135.231C302.65 137.031 304.65 137.231 309.25 136.731C312.45 136.431 316.25 135.631 317.75 134.931C319.35 134.231 322.35 132.531 324.55 131.131C326.75 129.631 329.55 126.931 330.75 125.031C332.75 122.031 333.05 120.531 332.75 112.631L332.55 103.631C316.25 103.431 309.75 103.631 307.55 104.131C305.35 104.531 302.25 105.531 300.55 106.431ZM442.05 29.2308C447.85 29.2308 455.75 29.8309 459.55 30.6309C463.35 31.4309 469.25 33.4309 472.55 35.0309C475.85 36.6309 480.75 39.9309 483.55 42.4309C486.25 44.8309 489.85 49.2308 491.45 52.2308C493.35 55.8308 494.55 59.7309 495.55 70.1309H462.05L461.45 66.9309C461.15 65.1309 459.85 62.1308 458.65 60.2308C457.45 58.2308 454.85 56.0309 452.55 54.9309C450.05 53.8309 446.15 53.1309 442.05 53.1309C437.15 53.1309 434.55 53.7309 431.65 55.4309C429.55 56.6309 426.85 59.2309 425.85 61.1309C424.45 63.6309 424.05 65.8309 424.45 68.6309C424.85 71.1309 426.05 73.6308 427.75 75.3308C429.35 76.9308 432.35 78.7309 434.55 79.6309C436.75 80.4309 445.05 82.6309 453.05 84.5309C461.35 86.6309 470.65 89.6309 474.75 91.6309C478.75 93.5309 484.15 97.1309 486.75 99.5309C489.55 102.031 492.55 106.031 493.95 109.231C495.75 113.231 496.35 116.531 496.45 122.131C496.45 127.231 495.85 131.431 494.55 135.131C493.35 138.731 490.85 142.531 487.45 146.131C484.65 149.131 479.65 153.031 476.45 154.831C473.25 156.631 466.95 158.931 462.55 160.131C456.65 161.631 451.45 162.131 443.05 162.131C436.65 162.131 428.45 161.431 424.55 160.531C420.75 159.731 414.45 157.431 410.65 155.331C406.45 153.131 401.55 149.231 398.15 145.631C394.45 141.731 391.65 137.631 390.25 133.931C389.05 130.731 388.05 126.131 388.05 119.131H419.55L420.25 123.331C420.65 125.731 421.85 128.731 422.85 130.131C423.85 131.531 426.25 133.631 428.15 134.931C430.05 136.131 434.05 137.631 437.05 138.231C440.05 138.831 444.75 139.031 447.55 138.631C450.25 138.231 453.65 137.331 455.05 136.631C456.45 135.931 458.55 134.231 459.85 132.931C461.25 131.531 462.35 128.931 462.65 126.131C463.05 122.731 462.65 120.831 461.15 118.431C459.85 116.431 457.05 114.131 453.75 112.631C450.95 111.331 442.25 108.631 434.55 106.631C426.85 104.731 417.15 101.531 413.05 99.5309C408.95 97.6309 403.75 94.5308 401.55 92.7308C399.35 90.9308 396.25 87.0309 394.55 84.0309C391.85 79.1309 391.55 77.8309 391.55 69.1309C391.55 60.8309 391.85 58.9309 394.25 54.1309C395.75 51.1309 399.35 46.2308 402.25 43.3308C405.15 40.5308 409.55 37.0309 412.05 35.6309C414.55 34.3309 419.95 32.3308 424.05 31.2308C429.15 29.8308 434.85 29.2308 442.05 29.2308ZM585.05 29.1309C589.15 29.1309 595.25 29.8308 598.55 30.7308C601.85 31.5308 606.35 33.3309 608.55 34.6309C610.75 35.9309 614.85 39.3308 617.65 42.3308C620.45 45.2308 623.85 49.6309 625.25 52.1309C626.75 54.6309 628.75 58.9309 629.85 61.6309C630.95 64.4309 632.55 70.2309 633.55 74.6309C634.65 79.9309 635.15 87.5309 635.15 97.1309C635.15 106.831 634.65 114.231 633.55 119.631C632.65 124.031 630.55 130.531 628.85 134.131C627.25 137.731 624.05 143.031 621.75 146.031C619.45 148.931 615.05 153.031 612.05 155.031C609.05 157.031 603.65 159.531 600.05 160.531C595.15 161.931 591.05 162.231 583.55 161.931C574.95 161.631 572.75 161.231 567.55 158.631C564.25 157.031 559.85 154.131 554.15 148.631L554.05 209.131H519.05V31.1309H551.05L551.55 38.1309C551.85 41.9309 552.55 45.1309 553.05 45.1309C553.55 45.1309 554.85 43.9309 555.75 42.5309C556.75 41.0309 559.75 38.2308 562.55 36.2308C565.25 34.2308 569.75 31.8309 572.55 30.9309C575.45 29.9309 580.65 29.1309 585.05 29.1309ZM556.35 64.2308C554.15 67.5308 554.15 68.1309 554.15 96.6309V125.631C560.25 131.631 563.55 133.431 567.05 134.531C570.05 135.431 574.15 136.131 576.05 136.131C577.95 136.131 581.25 135.631 583.25 135.131C585.35 134.531 588.65 132.631 590.65 130.931C592.65 129.131 595.25 125.831 596.35 123.631C597.45 121.431 598.95 116.731 599.65 113.131C600.45 109.531 601.05 102.631 601.05 97.6309C601.05 92.6309 600.35 85.4309 599.55 81.6309C598.75 77.8309 597.55 73.3309 596.85 71.6309C596.25 69.9309 594.45 66.8309 593.05 64.6309C591.55 62.3309 588.55 59.7309 585.95 58.4309C582.85 56.8309 579.75 56.1309 575.55 56.1309C571.45 56.1309 567.85 56.9309 564.05 58.5309C560.65 60.0309 557.85 62.1308 556.35 64.2308ZM708.55 29.2308C713.55 29.1308 720.25 29.6308 723.55 30.2308C726.85 30.8308 732.45 32.7309 736.05 34.4309C739.75 36.1309 744.75 39.6309 747.65 42.5309C750.55 45.4309 754.35 50.7309 756.35 54.9309C758.45 58.8309 760.75 64.9309 761.55 68.4309C762.35 71.8309 763.35 81.5309 764.55 105.131L686.55 105.631L686.95 109.631C687.05 111.831 688.05 115.631 688.95 118.131C689.85 120.631 691.95 124.331 693.55 126.431C695.35 128.731 698.85 131.431 702.05 132.931C707.05 135.331 708.55 135.631 718.55 135.531C724.55 135.531 731.55 134.931 734.05 134.231C736.55 133.531 741.75 131.431 752.55 126.431L755.95 134.031C757.85 138.231 759.95 143.131 762.05 148.131L757.35 151.131C754.65 152.731 748.95 155.331 744.55 157.031C740.15 158.631 733.15 160.431 729.05 161.131C724.45 161.931 716.55 162.131 708.55 161.831C698.15 161.531 694.25 160.931 689.05 159.031C685.45 157.631 680.15 155.031 677.15 153.131C674.15 151.231 669.45 147.131 666.75 144.131C664.05 141.131 660.05 135.031 657.95 130.631C655.45 125.631 653.45 119.631 652.55 114.631C651.75 110.231 651.05 102.331 651.05 97.1309C651.05 91.9309 651.75 83.6309 652.55 78.6309C653.65 72.1309 655.35 67.0309 658.55 60.4309C661.85 53.6309 664.75 49.4308 669.35 44.7308C673.05 40.9308 678.05 37.1308 681.85 35.2308C685.25 33.5308 690.65 31.5308 693.85 30.7308C696.95 29.9308 703.55 29.2308 708.55 29.2308ZM695.65 61.1309C693.65 63.0309 691.15 66.6309 690.15 69.1309C689.05 71.6309 688.05 75.6309 687.85 78.1309L687.55 82.6309H729.55C730.05 78.7309 729.45 74.7309 728.55 71.1309C727.65 67.5309 726.15 63.5309 725.15 62.1309C724.15 60.7309 721.85 58.9309 719.95 58.0309C718.05 57.0309 714.75 56.1308 712.55 55.7308C710.35 55.4308 706.45 55.7309 703.85 56.4309C701.05 57.1309 697.85 59.0309 695.65 61.1309ZM840.05 29.5309C849.55 29.8309 853.95 30.4309 858.55 32.0309C861.85 33.2309 866.75 35.6309 869.45 37.4309C872.15 39.2309 876.35 42.9309 878.75 45.6309C881.25 48.4309 884.25 52.9309 885.55 55.6309C886.85 58.4309 888.35 63.3309 888.95 66.6309C889.55 69.9309 890.05 74.1309 890.05 79.1309H858.55L857.85 74.6309C857.35 72.1309 856.35 68.6309 855.45 66.9309C854.55 65.1309 852.85 62.5308 851.65 61.3308C850.55 60.0308 848.25 58.2308 846.55 57.3308C844.85 56.5308 841.15 55.8308 838.05 55.8308C834.95 55.8308 830.55 56.7308 828.05 57.7308C825.25 58.9308 822.55 61.1309 820.75 63.6309C819.25 65.8309 816.95 70.8309 815.75 74.6309C813.95 80.5309 813.55 84.0309 813.55 96.1309C813.55 108.231 813.95 111.831 815.75 117.631C817.05 121.731 819.35 126.231 821.35 128.631C823.55 131.231 826.35 133.231 829.65 134.431C832.35 135.331 836.15 136.131 838.05 136.131C839.95 136.131 843.25 135.531 845.35 134.831C847.45 134.231 850.75 132.031 852.65 130.131C854.85 127.831 856.45 124.831 858.55 116.131H890.55L889.75 122.331C889.25 125.831 888.15 130.431 887.25 132.631C886.45 134.831 884.45 138.431 883.05 140.631C881.55 142.831 877.95 146.831 874.95 149.431C871.95 152.131 867.35 155.431 864.55 156.731C861.85 158.031 857.05 159.831 854.05 160.631C850.85 161.531 844.15 162.131 838.05 162.131C832.05 162.131 824.75 161.431 821.05 160.531C817.45 159.731 811.85 157.631 808.55 155.831C805.25 154.131 799.75 149.831 796.35 146.431C791.85 142.031 788.85 137.731 786.05 131.931C783.85 127.331 781.35 120.431 780.55 116.631C779.65 112.431 779.05 104.031 779.05 95.9309C779.05 86.7309 779.55 79.7309 780.65 74.9309C781.55 70.9309 783.45 65.1309 784.75 62.1309C786.05 59.1309 789.15 53.8309 791.65 50.4309C794.05 46.9309 798.45 42.4308 801.35 40.2308C804.15 38.1308 808.15 35.5309 810.05 34.6309C811.95 33.6309 816.75 32.0309 820.55 31.0309C826.15 29.5309 830.05 29.2309 840.05 29.5309Z" fill="#FEFEFE"/>
</svg>
